<svg width="192" height="86" viewBox="0 0 192 86" fill="none" xmlns="http://www.w3.org/2000/svg">
<rect width="192" height="72" fill="white"/>
<rect width="192" height="72" rx="8" fill="#DDCCF6"/>
<path d="M14.256 26V15.216H15.76V26H14.256ZM10.48 16.272V14.896H19.52V16.272H10.48ZM22.1786 26.16C21.4853 26.16 20.856 25.9893 20.2906 25.648C19.7253 25.296 19.2773 24.8213 18.9466 24.224C18.6266 23.6267 18.4666 22.9547 18.4666 22.208C18.4666 21.4613 18.6266 20.7893 18.9466 20.192C19.2773 19.5947 19.72 19.12 20.2746 18.768C20.84 18.416 21.4746 18.24 22.1786 18.24C22.7546 18.24 23.2666 18.3627 23.7146 18.608C24.1733 18.8427 24.5413 19.1733 24.8186 19.6C25.096 20.016 25.2506 20.5013 25.2826 21.056V23.344C25.2506 23.888 25.096 24.3733 24.8186 24.8C24.552 25.2267 24.1893 25.5627 23.7306 25.808C23.2826 26.0427 22.7653 26.16 22.1786 26.16ZM22.4186 24.8C23.1333 24.8 23.7093 24.56 24.1466 24.08C24.584 23.5893 24.8026 22.9653 24.8026 22.208C24.8026 21.6853 24.7013 21.232 24.4986 20.848C24.3066 20.4533 24.0293 20.1493 23.6666 19.936C23.304 19.712 22.8826 19.6 22.4026 19.6C21.9226 19.6 21.496 19.712 21.1226 19.936C20.76 20.16 20.472 20.4693 20.2586 20.864C20.056 21.248 19.9546 21.6907 19.9546 22.192C19.9546 22.704 20.056 23.1573 20.2586 23.552C20.472 23.936 20.7653 24.24 21.1386 24.464C21.512 24.688 21.9386 24.8 22.4186 24.8ZM24.7066 26V23.952L24.9786 22.096L24.7066 20.256V18.4H26.1626V26H24.7066ZM30.6751 26.16C30.2485 26.16 29.8431 26.1067 29.4591 26C29.0858 25.8827 28.7391 25.7227 28.4191 25.52C28.0991 25.3067 27.8218 25.056 27.5871 24.768L28.5151 23.84C28.7925 24.1813 29.1125 24.4373 29.4751 24.608C29.8378 24.768 30.2431 24.848 30.6911 24.848C31.1391 24.848 31.4858 24.7733 31.7311 24.624C31.9765 24.464 32.0991 24.2453 32.0991 23.968C32.0991 23.6907 31.9978 23.4773 31.7951 23.328C31.6031 23.168 31.3525 23.04 31.0431 22.944C30.7338 22.8373 30.4031 22.736 30.0511 22.64C29.7098 22.5333 29.3845 22.4 29.0751 22.24C28.7658 22.08 28.5098 21.8613 28.3071 21.584C28.1151 21.3067 28.0191 20.9387 28.0191 20.48C28.0191 20.0213 28.1311 19.6267 28.3551 19.296C28.5791 18.9547 28.8885 18.6933 29.2831 18.512C29.6885 18.3307 30.1738 18.24 30.7391 18.24C31.3365 18.24 31.8645 18.3467 32.3231 18.56C32.7925 18.7627 33.1765 19.072 33.4751 19.488L32.5471 20.416C32.3338 20.1387 32.0671 19.9253 31.7471 19.776C31.4378 19.6267 31.0858 19.552 30.6911 19.552C30.2751 19.552 29.9551 19.6267 29.7311 19.776C29.5178 19.9147 29.4111 20.112 29.4111 20.368C29.4111 20.624 29.5071 20.8213 29.6991 20.96C29.8911 21.0987 30.1418 21.216 30.4511 21.312C30.7711 21.408 31.1018 21.5093 31.4431 21.616C31.7845 21.712 32.1098 21.8453 32.4191 22.016C32.7285 22.1867 32.9791 22.416 33.1711 22.704C33.3738 22.992 33.4751 23.3707 33.4751 23.84C33.4751 24.5547 33.2191 25.12 32.7071 25.536C32.2058 25.952 31.5285 26.16 30.6751 26.16ZM39.9513 26L36.3993 22.112L39.9193 18.4H41.6633L37.7433 22.496L37.8073 21.664L41.8073 26H39.9513ZM35.0872 26V14.576H36.5273V26H35.0872ZM49.3341 26V15.216H50.8381V26H49.3341ZM45.5581 16.272V14.896H54.5981V16.272H45.5581ZM56.1501 26V18.4H57.5901V26H56.1501ZM56.8701 16.88C56.6035 16.88 56.3848 16.7947 56.2141 16.624C56.0435 16.4427 55.9581 16.2187 55.9581 15.952C55.9581 15.696 56.0435 15.4827 56.2141 15.312C56.3848 15.1307 56.6035 15.04 56.8701 15.04C57.1368 15.04 57.3555 15.1307 57.5261 15.312C57.6968 15.4827 57.7821 15.696 57.7821 15.952C57.7821 16.2187 57.6968 16.4427 57.5261 16.624C57.3555 16.7947 57.1368 16.88 56.8701 16.88ZM60.8803 26V15.216H62.3203V26H60.8803ZM59.0083 19.712V18.4H64.1923V19.712H59.0083ZM65.6029 26V14.576H67.0429V26H65.6029ZM72.6698 26.16C71.9124 26.16 71.2298 25.9893 70.6218 25.648C70.0138 25.296 69.5338 24.8213 69.1818 24.224C68.8298 23.6267 68.6538 22.9493 68.6538 22.192C68.6538 21.4453 68.8244 20.7733 69.1658 20.176C69.5178 19.5787 69.9871 19.1093 70.5738 18.768C71.1711 18.416 71.8378 18.24 72.5738 18.24C73.2778 18.24 73.8964 18.4 74.4298 18.72C74.9738 19.04 75.3951 19.4827 75.6938 20.048C76.0031 20.6133 76.1578 21.2533 76.1578 21.968C76.1578 22.0747 76.1524 22.192 76.1418 22.32C76.1311 22.4373 76.1098 22.576 76.0778 22.736H69.6618V21.536H75.3098L74.7818 22C74.7818 21.488 74.6911 21.056 74.5098 20.704C74.3284 20.3413 74.0724 20.064 73.7418 19.872C73.4111 19.6693 73.0111 19.568 72.5418 19.568C72.0511 19.568 71.6191 19.6747 71.2458 19.888C70.8724 20.1013 70.5844 20.4 70.3818 20.784C70.1791 21.168 70.0778 21.6213 70.0778 22.144C70.0778 22.6773 70.1844 23.1467 70.3978 23.552C70.6111 23.9467 70.9151 24.256 71.3098 24.48C71.7044 24.6933 72.1578 24.8 72.6698 24.8C73.0964 24.8 73.4858 24.7253 73.8378 24.576C74.2004 24.4267 74.5098 24.2027 74.7658 23.904L75.6938 24.848C75.3311 25.2747 74.8831 25.6 74.3498 25.824C73.8271 26.048 73.2671 26.16 72.6698 26.16Z" fill="black"/>
<rect x="10.5" y="38.5" width="32" height="23" rx="7.5" fill="white"/>
<rect x="10.5" y="38.5" width="32" height="23" rx="7.5" stroke="#F4933E"/>
<path d="M18.5458 54.5V45.5156H19.7988V54.5H18.5458ZM15.3999 46.3954V45.249H22.9314V46.3954H15.3999ZM25.1463 54.6333C24.5687 54.6333 24.0444 54.4911 23.5734 54.2067C23.1024 53.9135 22.7291 53.518 22.4537 53.0204C22.1871 52.5227 22.0538 51.9629 22.0538 51.3408C22.0538 50.7187 22.1871 50.1589 22.4537 49.6612C22.7291 49.1636 23.0979 48.7681 23.56 48.4748C24.031 48.1816 24.5598 48.0349 25.1463 48.0349C25.6262 48.0349 26.0528 48.1371 26.426 48.3415C26.8081 48.537 27.1147 48.8125 27.3458 49.168C27.5768 49.5146 27.7057 49.9189 27.7323 50.381V52.2872C27.7057 52.7404 27.5768 53.1448 27.3458 53.5002C27.1236 53.8557 26.8215 54.1356 26.4393 54.34C26.0661 54.5355 25.6351 54.6333 25.1463 54.6333ZM25.3463 53.5002C25.9417 53.5002 26.4216 53.3003 26.7859 52.9004C27.1503 52.4916 27.3324 51.9717 27.3324 51.3408C27.3324 50.9053 27.248 50.5277 27.0792 50.2077C26.9192 49.8789 26.6882 49.6257 26.386 49.4479C26.0839 49.2613 25.7328 49.168 25.3329 49.168C24.933 49.168 24.5776 49.2613 24.2665 49.4479C23.9644 49.6345 23.7245 49.8923 23.5467 50.2211C23.3779 50.541 23.2934 50.9098 23.2934 51.3275C23.2934 51.754 23.3779 52.1317 23.5467 52.4605C23.7245 52.7804 23.9688 53.0337 24.2799 53.2203C24.5909 53.4069 24.9464 53.5002 25.3463 53.5002ZM27.2525 54.5V52.7938L27.4791 51.2475L27.2525 49.7145V48.1682H28.4655V54.5H27.2525ZM32.8381 57.286C32.1894 57.286 31.6118 57.166 31.1052 56.9261C30.6076 56.6861 30.2077 56.3484 29.9055 55.913L30.6787 55.1265C30.9364 55.4553 31.243 55.7041 31.5985 55.873C31.9539 56.0507 32.376 56.1396 32.8648 56.1396C33.5135 56.1396 34.0245 55.9663 34.3978 55.6197C34.7799 55.282 34.9709 54.8244 34.9709 54.2467V52.6738L35.1842 51.2475L34.9709 49.8345V48.1682H36.1706V54.2467C36.1706 54.851 36.0285 55.3798 35.7441 55.833C35.4686 56.2862 35.0776 56.6417 34.571 56.8994C34.0734 57.1571 33.4958 57.286 32.8381 57.286ZM32.8381 54.3934C32.2605 54.3934 31.7406 54.2556 31.2785 53.9801C30.8253 53.7046 30.4654 53.327 30.1988 52.8471C29.9322 52.3583 29.7989 51.8118 29.7989 51.2075C29.7989 50.6032 29.9322 50.0656 30.1988 49.5946C30.4654 49.1147 30.8253 48.737 31.2785 48.4615C31.7406 48.1771 32.2605 48.0349 32.8381 48.0349C33.3358 48.0349 33.7757 48.1327 34.1578 48.3282C34.5399 48.5237 34.8421 48.7992 35.0643 49.1547C35.2953 49.5012 35.4197 49.91 35.4375 50.381V52.0606C35.4108 52.5227 35.282 52.9315 35.0509 53.287C34.8288 53.6335 34.5266 53.9046 34.1445 54.1001C33.7624 54.2956 33.3269 54.3934 32.8381 54.3934ZM33.0781 53.2603C33.4691 53.2603 33.8112 53.1759 34.1045 53.007C34.4066 52.8382 34.6377 52.6027 34.7977 52.3005C34.9576 51.9895 35.0376 51.6296 35.0376 51.2208C35.0376 50.812 34.9532 50.4566 34.7843 50.1544C34.6244 49.8434 34.3978 49.6034 34.1045 49.4346C33.8112 49.2569 33.4647 49.168 33.0648 49.168C32.6649 49.168 32.3138 49.2569 32.0117 49.4346C31.7095 49.6034 31.4696 49.8434 31.2919 50.1544C31.123 50.4566 31.0386 50.8076 31.0386 51.2075C31.0386 51.6074 31.123 51.9629 31.2919 52.2739C31.4696 52.5849 31.7095 52.8293 32.0117 53.007C32.3227 53.1759 32.6782 53.2603 33.0781 53.2603Z" fill="#F4933E"/>
<rect x="48.5" y="38.5" width="32" height="23" rx="7.5" fill="white"/>
<rect x="48.5" y="38.5" width="32" height="23" rx="7.5" stroke="#62A43A"/>
<path d="M56.5458 54.5V45.5156H57.7988V54.5H56.5458ZM53.3999 46.3954V45.249H60.9314V46.3954H53.3999ZM63.1463 54.6333C62.5687 54.6333 62.0444 54.4911 61.5734 54.2067C61.1024 53.9135 60.7291 53.518 60.4537 53.0204C60.1871 52.5227 60.0538 51.9629 60.0538 51.3408C60.0538 50.7187 60.1871 50.1589 60.4537 49.6612C60.7291 49.1636 61.0979 48.7681 61.56 48.4748C62.031 48.1816 62.5598 48.0349 63.1463 48.0349C63.6262 48.0349 64.0528 48.1371 64.426 48.3415C64.8081 48.537 65.1147 48.8125 65.3458 49.168C65.5768 49.5146 65.7057 49.9189 65.7323 50.381V52.2872C65.7057 52.7404 65.5768 53.1448 65.3458 53.5002C65.1236 53.8557 64.8215 54.1356 64.4393 54.34C64.0661 54.5355 63.6351 54.6333 63.1463 54.6333ZM63.3463 53.5002C63.9417 53.5002 64.4216 53.3003 64.7859 52.9004C65.1503 52.4916 65.3324 51.9717 65.3324 51.3408C65.3324 50.9053 65.248 50.5277 65.0792 50.2077C64.9192 49.8789 64.6882 49.6257 64.386 49.4479C64.0839 49.2613 63.7328 49.168 63.3329 49.168C62.933 49.168 62.5776 49.2613 62.2665 49.4479C61.9644 49.6345 61.7245 49.8923 61.5467 50.2211C61.3779 50.541 61.2934 50.9098 61.2934 51.3275C61.2934 51.754 61.3779 52.1317 61.5467 52.4605C61.7245 52.7804 61.9688 53.0337 62.2799 53.2203C62.5909 53.4069 62.9464 53.5002 63.3463 53.5002ZM65.2525 54.5V52.7938L65.4791 51.2475L65.2525 49.7145V48.1682H66.4655V54.5H65.2525ZM70.8381 57.286C70.1894 57.286 69.6118 57.166 69.1052 56.9261C68.6076 56.6861 68.2077 56.3484 67.9055 55.913L68.6787 55.1265C68.9364 55.4553 69.243 55.7041 69.5985 55.873C69.9539 56.0507 70.376 56.1396 70.8648 56.1396C71.5135 56.1396 72.0245 55.9663 72.3978 55.6197C72.7799 55.282 72.9709 54.8244 72.9709 54.2467V52.6738L73.1842 51.2475L72.9709 49.8345V48.1682H74.1706V54.2467C74.1706 54.851 74.0285 55.3798 73.7441 55.833C73.4686 56.2862 73.0776 56.6417 72.571 56.8994C72.0734 57.1571 71.4958 57.286 70.8381 57.286ZM70.8381 54.3934C70.2605 54.3934 69.7406 54.2556 69.2785 53.9801C68.8253 53.7046 68.4654 53.327 68.1988 52.8471C67.9322 52.3583 67.7989 51.8118 67.7989 51.2075C67.7989 50.6032 67.9322 50.0656 68.1988 49.5946C68.4654 49.1147 68.8253 48.737 69.2785 48.4615C69.7406 48.1771 70.2605 48.0349 70.8381 48.0349C71.3358 48.0349 71.7757 48.1327 72.1578 48.3282C72.5399 48.5237 72.8421 48.7992 73.0643 49.1547C73.2953 49.5012 73.4197 49.91 73.4375 50.381V52.0606C73.4108 52.5227 73.282 52.9315 73.0509 53.287C72.8288 53.6335 72.5266 53.9046 72.1445 54.1001C71.7624 54.2956 71.3269 54.3934 70.8381 54.3934ZM71.0781 53.2603C71.4691 53.2603 71.8112 53.1759 72.1045 53.007C72.4066 52.8382 72.6377 52.6027 72.7977 52.3005C72.9576 51.9895 73.0376 51.6296 73.0376 51.2208C73.0376 50.812 72.9532 50.4566 72.7843 50.1544C72.6244 49.8434 72.3978 49.6034 72.1045 49.4346C71.8112 49.2569 71.4647 49.168 71.0648 49.168C70.6649 49.168 70.3138 49.2569 70.0117 49.4346C69.7095 49.6034 69.4696 49.8434 69.2919 50.1544C69.123 50.4566 69.0386 50.8076 69.0386 51.2075C69.0386 51.6074 69.123 51.9629 69.2919 52.2739C69.4696 52.5849 69.7095 52.8293 70.0117 53.007C70.3227 53.1759 70.6782 53.2603 71.0781 53.2603Z" fill="#62A43A"/>
<path d="M89.4286 50.5714H86V49.4286H89.4286V46H90.5714V49.4286H94V50.5714H90.5714V54H89.4286V50.5714Z" fill="#21232B"/>
<circle cx="146" cy="74" r="11" fill="#F7F8F8" stroke="#7A35DB" stroke-width="2"/>
<mask id="mask0_221_180" style="mask-type:alpha" maskUnits="userSpaceOnUse" x="136" y="64" width="20" height="20">
<rect x="136" y="64" width="20" height="20" fill="#D9D9D9"/>
</mask>
<g mask="url(#mask0_221_180)">
<path d="M143.5 75.875C143.208 75.875 142.962 75.7743 142.76 75.5729C142.559 75.3715 142.458 75.125 142.458 74.8333C142.458 74.5417 142.559 74.2951 142.76 74.0938C142.962 73.8924 143.208 73.7917 143.5 73.7917C143.792 73.7917 144.038 73.8924 144.24 74.0938C144.441 74.2951 144.542 74.5417 144.542 74.8333C144.542 75.125 144.441 75.3715 144.24 75.5729C144.038 75.7743 143.792 75.875 143.5 75.875ZM148.5 75.875C148.208 75.875 147.962 75.7743 147.76 75.5729C147.559 75.3715 147.458 75.125 147.458 74.8333C147.458 74.5417 147.559 74.2951 147.76 74.0938C147.962 73.8924 148.208 73.7917 148.5 73.7917C148.792 73.7917 149.038 73.8924 149.24 74.0938C149.441 74.2951 149.542 74.5417 149.542 74.8333C149.542 75.125 149.441 75.3715 149.24 75.5729C149.038 75.7743 148.792 75.875 148.5 75.875ZM146 80.6667C147.861 80.6667 149.438 80.0208 150.729 78.7292C152.021 77.4375 152.667 75.8611 152.667 74C152.667 73.6667 152.646 73.3438 152.604 73.0313C152.563 72.7188 152.486 72.4167 152.375 72.125C152.083 72.1944 151.792 72.2465 151.5 72.2813C151.208 72.316 150.903 72.3333 150.583 72.3333C149.319 72.3333 148.125 72.0625 147 71.5208C145.875 70.9792 144.917 70.2222 144.125 69.25C143.681 70.3333 143.045 71.2743 142.219 72.0729C141.392 72.8715 140.431 73.4722 139.333 73.875V74C139.333 75.8611 139.979 77.4375 141.271 78.7292C142.563 80.0208 144.139 80.6667 146 80.6667ZM146 82.3333C144.847 82.3333 143.764 82.1146 142.75 81.6771C141.736 81.2396 140.854 80.6458 140.104 79.8958C139.354 79.1458 138.76 78.2639 138.323 77.25C137.885 76.2361 137.667 75.1528 137.667 74C137.667 72.8472 137.885 71.7639 138.323 70.75C138.76 69.7361 139.354 68.8542 140.104 68.1042C140.854 67.3542 141.736 66.7604 142.75 66.3229C143.764 65.8854 144.847 65.6667 146 65.6667C147.153 65.6667 148.236 65.8854 149.25 66.3229C150.264 66.7604 151.146 67.3542 151.896 68.1042C152.646 68.8542 153.24 69.7361 153.677 70.75C154.115 71.7639 154.333 72.8472 154.333 74C154.333 75.1528 154.115 76.2361 153.677 77.25C153.24 78.2639 152.646 79.1458 151.896 79.8958C151.146 80.6458 150.264 81.2396 149.25 81.6771C148.236 82.1146 147.153 82.3333 146 82.3333ZM144.875 67.4375C145.458 68.4097 146.25 69.191 147.25 69.7813C148.25 70.3715 149.361 70.6667 150.583 70.6667C150.778 70.6667 150.965 70.6563 151.146 70.6354C151.326 70.6146 151.514 70.5903 151.708 70.5625C151.125 69.5903 150.333 68.809 149.333 68.2188C148.333 67.6285 147.222 67.3333 146 67.3333C145.806 67.3333 145.618 67.3438 145.438 67.3646C145.257 67.3854 145.069 67.4097 144.875 67.4375ZM139.688 71.8958C140.396 71.4931 141.014 70.9722 141.542 70.3333C142.069 69.6944 142.465 68.9792 142.729 68.1875C142.021 68.5903 141.403 69.1111 140.875 69.75C140.347 70.3889 139.951 71.1042 139.688 71.8958Z" fill="#1C1B1F"/>
</g>
<circle cx="163" cy="74" r="11" fill="#F7F8F8" stroke="#7A35DB" stroke-width="2"/>
<mask id="mask1_221_180" style="mask-type:alpha" maskUnits="userSpaceOnUse" x="153" y="64" width="20" height="20">
<rect x="153.5" y="64.5" width="19" height="19" fill="#D9D9D9" stroke="#7A35DB"/>
</mask>
<g mask="url(#mask1_221_180)">
<path d="M156.55 72.2467L156.545 72.2673L156.566 72.2621C156.845 72.1923 157.135 72.0561 157.434 71.8541C157.585 71.7522 157.747 71.578 157.919 71.3327C158.091 71.0872 158.275 70.7698 158.47 70.3806L158.47 70.3804C158.677 69.952 158.981 69.6171 159.381 69.3753C159.782 69.1335 160.224 69.0125 160.708 69.0125H165.292C165.776 69.0125 166.218 69.1335 166.619 69.3753C167.019 69.6171 167.323 69.952 167.53 70.3804L167.53 70.3805C167.725 70.7767 167.91 71.0985 168.086 71.3458C168.262 71.5929 168.429 71.7663 168.587 71.8648C168.9 72.0596 169.183 72.1922 169.434 72.262L169.455 72.2679L169.45 72.2467C169.06 70.8136 168.277 69.6342 167.102 68.7089C165.926 67.7835 164.558 67.3208 163 67.3208C161.456 67.3208 160.092 67.7835 158.909 68.7089C157.726 69.6342 156.94 70.8135 156.55 72.2467ZM169.679 73.9582L169.679 73.947L169.668 73.9459C168.684 73.8489 167.93 73.5406 167.405 73.0224C166.878 72.5027 166.427 71.8685 166.053 71.1196C165.983 70.9648 165.88 70.8482 165.746 70.7704C165.612 70.6929 165.467 70.6542 165.313 70.6542H160.708C160.54 70.6542 160.388 70.6928 160.254 70.7704C160.12 70.8482 160.017 70.9649 159.947 71.1197C159.573 71.8823 159.115 72.5234 158.575 73.0431C158.036 73.5615 157.288 73.8697 156.332 73.9667L156.321 73.9679V73.9792C156.321 75.8435 156.971 77.4266 158.272 78.7276C159.573 80.0286 161.15 80.6792 163 80.6792C164.864 80.6792 166.447 80.0251 167.748 78.7172C169.049 77.4092 169.693 75.8227 169.679 73.9582ZM163 82.3208C161.863 82.3208 160.788 82.1024 159.776 81.6656C158.763 81.2287 157.879 80.6324 157.123 79.8766C156.368 79.1208 155.771 78.2367 155.334 77.2242C154.898 76.2119 154.679 75.1372 154.679 74C154.679 72.8489 154.898 71.7672 155.334 70.755C155.771 69.7425 156.368 68.8619 157.123 68.1131C157.879 67.3642 158.763 66.7713 159.776 66.3344C160.788 65.8976 161.863 65.6792 163 65.6792C164.151 65.6792 165.233 65.8976 166.245 66.3344C167.258 66.7713 168.138 67.3642 168.887 68.113C169.636 68.8618 170.229 69.7425 170.666 70.755C171.102 71.7672 171.321 72.8489 171.321 74C171.321 75.1372 171.102 76.2119 170.666 77.2242C170.229 78.2367 169.636 79.1208 168.887 79.8766C168.138 80.6324 167.258 81.2287 166.245 81.6656C165.233 82.1024 164.151 82.3208 163 82.3208ZM160.5 75.8625C160.212 75.8625 159.968 75.7631 159.769 75.5641C159.57 75.3651 159.471 75.1218 159.471 74.8333C159.471 74.5449 159.57 74.3016 159.769 74.1026C159.968 73.9036 160.212 73.8042 160.5 73.8042C160.788 73.8042 161.032 73.9036 161.231 74.1026C161.43 74.3016 161.529 74.5449 161.529 74.8333C161.529 75.1218 161.43 75.3651 161.231 75.5641C161.032 75.7631 160.788 75.8625 160.5 75.8625ZM165.5 75.8625C165.212 75.8625 164.968 75.7631 164.769 75.5641C164.57 75.3651 164.471 75.1218 164.471 74.8333C164.471 74.5449 164.57 74.3016 164.769 74.1026C164.968 73.9036 165.212 73.8042 165.5 73.8042C165.788 73.8042 166.032 73.9036 166.231 74.1026C166.43 74.3016 166.529 74.5449 166.529 74.8333C166.529 75.1218 166.43 75.3651 166.231 75.5641C166.032 75.7631 165.788 75.8625 165.5 75.8625Z" fill="#1C1B1F" stroke="#7A35DB" stroke-width="0.025"/>
</g>
<circle cx="180" cy="74" r="11" fill="#F7F8F8" stroke="#7A35DB" stroke-width="2"/>
<mask id="mask2_221_180" style="mask-type:alpha" maskUnits="userSpaceOnUse" x="170" y="64" width="20" height="20">
<rect x="170.5" y="64.5" width="19" height="19" fill="#D9D9D9" stroke="#7A35DB"/>
</mask>
<g mask="url(#mask2_221_180)">
<mask id="path-16-inside-1_221_180" fill="white">
<path d="M180 69C179.889 69 179.792 68.9583 179.708 68.875C179.625 68.7917 179.583 68.6944 179.583 68.5833C179.583 68.4722 179.625 68.375 179.708 68.2917C179.792 68.2083 179.889 68.1667 180 68.1667C180.111 68.1667 180.208 68.2083 180.292 68.2917C180.375 68.375 180.417 68.4722 180.417 68.5833C180.417 68.6944 180.375 68.7917 180.292 68.875C180.208 68.9583 180.111 69 180 69ZM181.667 69C181.556 69 181.458 68.9583 181.375 68.875C181.292 68.7917 181.25 68.6944 181.25 68.5833C181.25 68.4722 181.292 68.375 181.375 68.2917C181.458 68.2083 181.556 68.1667 181.667 68.1667C181.778 68.1667 181.875 68.2083 181.958 68.2917C182.042 68.375 182.083 68.4722 182.083 68.5833C182.083 68.6944 182.042 68.7917 181.958 68.875C181.875 68.9583 181.778 69 181.667 69ZM178.333 69C178.222 69 178.125 68.9583 178.042 68.875C177.958 68.7917 177.917 68.6944 177.917 68.5833C177.917 68.4722 177.958 68.375 178.042 68.2917C178.125 68.2083 178.222 68.1667 178.333 68.1667C178.444 68.1667 178.542 68.2083 178.625 68.2917C178.708 68.375 178.75 68.4722 178.75 68.5833C178.75 68.6944 178.708 68.7917 178.625 68.875C178.542 68.9583 178.444 69 178.333 69ZM184.167 69.8333C184.056 69.8333 183.958 69.7917 183.875 69.7083C183.792 69.625 183.75 69.5278 183.75 69.4167C183.75 69.3056 183.792 69.2083 183.875 69.125C183.958 69.0417 184.056 69 184.167 69C184.278 69 184.375 69.0417 184.458 69.125C184.542 69.2083 184.583 69.3056 184.583 69.4167C184.583 69.5278 184.542 69.625 184.458 69.7083C184.375 69.7917 184.278 69.8333 184.167 69.8333ZM177.5 69.8333C177.389 69.8333 177.292 69.7917 177.208 69.7083C177.125 69.625 177.083 69.5278 177.083 69.4167C177.083 69.3056 177.125 69.2083 177.208 69.125C177.292 69.0417 177.389 69 177.5 69C177.611 69 177.708 69.0417 177.792 69.125C177.875 69.2083 177.917 69.3056 177.917 69.4167C177.917 69.5278 177.875 69.625 177.792 69.7083C177.708 69.7917 177.611 69.8333 177.5 69.8333ZM175.833 69.8333C175.722 69.8333 175.625 69.7917 175.542 69.7083C175.458 69.625 175.417 69.5278 175.417 69.4167C175.417 69.3056 175.458 69.2083 175.542 69.125C175.625 69.0417 175.722 69 175.833 69C175.944 69 176.042 69.0417 176.125 69.125C176.208 69.2083 176.25 69.3056 176.25 69.4167C176.25 69.5278 176.208 69.625 176.125 69.7083C176.042 69.7917 175.944 69.8333 175.833 69.8333ZM179.167 69.8333C179.056 69.8333 178.958 69.7917 178.875 69.7083C178.792 69.625 178.75 69.5278 178.75 69.4167C178.75 69.3056 178.792 69.2083 178.875 69.125C178.958 69.0417 179.056 69 179.167 69C179.278 69 179.375 69.0417 179.458 69.125C179.542 69.2083 179.583 69.3056 179.583 69.4167C179.583 69.5278 179.542 69.625 179.458 69.7083C179.375 69.7917 179.278 69.8333 179.167 69.8333ZM180.833 69.8333C180.722 69.8333 180.625 69.7917 180.542 69.7083C180.458 69.625 180.417 69.5278 180.417 69.4167C180.417 69.3056 180.458 69.2083 180.542 69.125C180.625 69.0417 180.722 69 180.833 69C180.944 69 181.042 69.0417 181.125 69.125C181.208 69.2083 181.25 69.3056 181.25 69.4167C181.25 69.5278 181.208 69.625 181.125 69.7083C181.042 69.7917 180.944 69.8333 180.833 69.8333ZM182.5 69.8333C182.389 69.8333 182.292 69.7917 182.208 69.7083C182.125 69.625 182.083 69.5278 182.083 69.4167C182.083 69.3056 182.125 69.2083 182.208 69.125C182.292 69.0417 182.389 69 182.5 69C182.611 69 182.708 69.0417 182.792 69.125C182.875 69.2083 182.917 69.3056 182.917 69.4167C182.917 69.5278 182.875 69.625 182.792 69.7083C182.708 69.7917 182.611 69.8333 182.5 69.8333ZM180 70.6667C179.889 70.6667 179.792 70.625 179.708 70.5417C179.625 70.4583 179.583 70.3611 179.583 70.25C179.583 70.1389 179.625 70.0417 179.708 69.9583C179.792 69.875 179.889 69.8333 180 69.8333C180.111 69.8333 180.208 69.875 180.292 69.9583C180.375 70.0417 180.417 70.1389 180.417 70.25C180.417 70.3611 180.375 70.4583 180.292 70.5417C180.208 70.625 180.111 70.6667 180 70.6667ZM181.667 70.6667C181.556 70.6667 181.458 70.625 181.375 70.5417C181.292 70.4583 181.25 70.3611 181.25 70.25C181.25 70.1389 181.292 70.0417 181.375 69.9583C181.458 69.875 181.556 69.8333 181.667 69.8333C181.778 69.8333 181.875 69.875 181.958 69.9583C182.042 70.0417 182.083 70.1389 182.083 70.25C182.083 70.3611 182.042 70.4583 181.958 70.5417C181.875 70.625 181.778 70.6667 181.667 70.6667ZM183.333 70.6667C183.222 70.6667 183.125 70.625 183.042 70.5417C182.958 70.4583 182.917 70.3611 182.917 70.25C182.917 70.1389 182.958 70.0417 183.042 69.9583C183.125 69.875 183.222 69.8333 183.333 69.8333C183.444 69.8333 183.542 69.875 183.625 69.9583C183.708 70.0417 183.75 70.1389 183.75 70.25C183.75 70.3611 183.708 70.4583 183.625 70.5417C183.542 70.625 183.444 70.6667 183.333 70.6667ZM178.333 70.6667C178.222 70.6667 178.125 70.625 178.042 70.5417C177.958 70.4583 177.917 70.3611 177.917 70.25C177.917 70.1389 177.958 70.0417 178.042 69.9583C178.125 69.875 178.222 69.8333 178.333 69.8333C178.444 69.8333 178.542 69.875 178.625 69.9583C178.708 70.0417 178.75 70.1389 178.75 70.25C178.75 70.3611 178.708 70.4583 178.625 70.5417C178.542 70.625 178.444 70.6667 178.333 70.6667ZM176.667 70.6667C176.556 70.6667 176.458 70.625 176.375 70.5417C176.292 70.4583 176.25 70.3611 176.25 70.25C176.25 70.1389 176.292 70.0417 176.375 69.9583C176.458 69.875 176.556 69.8333 176.667 69.8333C176.778 69.8333 176.875 69.875 176.958 69.9583C177.042 70.0417 177.083 70.1389 177.083 70.25C177.083 70.3611 177.042 70.4583 176.958 70.5417C176.875 70.625 176.778 70.6667 176.667 70.6667ZM177.5 71.5C177.389 71.5 177.292 71.4583 177.208 71.375C177.125 71.2917 177.083 71.1944 177.083 71.0833C177.083 70.9722 177.125 70.875 177.208 70.7917C177.292 70.7083 177.389 70.6667 177.5 70.6667C177.611 70.6667 177.708 70.7083 177.792 70.7917C177.875 70.875 177.917 70.9722 177.917 71.0833C177.917 71.1944 177.875 71.2917 177.792 71.375C177.708 71.4583 177.611 71.5 177.5 71.5ZM175.833 71.5C175.722 71.5 175.625 71.4583 175.542 71.375C175.458 71.2917 175.417 71.1944 175.417 71.0833C175.417 70.9722 175.458 70.875 175.542 70.7917C175.625 70.7083 175.722 70.6667 175.833 70.6667C175.944 70.6667 176.042 70.7083 176.125 70.7917C176.208 70.875 176.25 70.9722 176.25 71.0833C176.25 71.1944 176.208 71.2917 176.125 71.375C176.042 71.4583 175.944 71.5 175.833 71.5ZM179.167 71.5C179.056 71.5 178.958 71.4583 178.875 71.375C178.792 71.2917 178.75 71.1944 178.75 71.0833C178.75 70.9722 178.792 70.875 178.875 70.7917C178.958 70.7083 179.056 70.6667 179.167 70.6667C179.278 70.6667 179.375 70.7083 179.458 70.7917C179.542 70.875 179.583 70.9722 179.583 71.0833C179.583 71.1944 179.542 71.2917 179.458 71.375C179.375 71.4583 179.278 71.5 179.167 71.5ZM180.833 71.5C180.722 71.5 180.625 71.4583 180.542 71.375C180.458 71.2917 180.417 71.1944 180.417 71.0833C180.417 70.9722 180.458 70.875 180.542 70.7917C180.625 70.7083 180.722 70.6667 180.833 70.6667C180.944 70.6667 181.042 70.7083 181.125 70.7917C181.208 70.875 181.25 70.9722 181.25 71.0833C181.25 71.1944 181.208 71.2917 181.125 71.375C181.042 71.4583 180.944 71.5 180.833 71.5ZM182.5 71.5C182.389 71.5 182.292 71.4583 182.208 71.375C182.125 71.2917 182.083 71.1944 182.083 71.0833C182.083 70.9722 182.125 70.875 182.208 70.7917C182.292 70.7083 182.389 70.6667 182.5 70.6667C182.611 70.6667 182.708 70.7083 182.792 70.7917C182.875 70.875 182.917 70.9722 182.917 71.0833C182.917 71.1944 182.875 71.2917 182.792 71.375C182.708 71.4583 182.611 71.5 182.5 71.5ZM184.167 71.5C184.056 71.5 183.958 71.4583 183.875 71.375C183.792 71.2917 183.75 71.1944 183.75 71.0833C183.75 70.9722 183.792 70.875 183.875 70.7917C183.958 70.7083 184.056 70.6667 184.167 70.6667C184.278 70.6667 184.375 70.7083 184.458 70.7917C184.542 70.875 184.583 70.9722 184.583 71.0833C184.583 71.1944 184.542 71.2917 184.458 71.375C184.375 71.4583 184.278 71.5 184.167 71.5ZM174.167 71.5C174.056 71.5 173.958 71.4583 173.875 71.375C173.792 71.2917 173.75 71.1944 173.75 71.0833C173.75 70.9722 173.792 70.875 173.875 70.7917C173.958 70.7083 174.056 70.6667 174.167 70.6667C174.278 70.6667 174.375 70.7083 174.458 70.7917C174.542 70.875 174.583 70.9722 174.583 71.0833C174.583 71.1944 174.542 71.2917 174.458 71.375C174.375 71.4583 174.278 71.5 174.167 71.5ZM175 70.6667C174.889 70.6667 174.792 70.625 174.708 70.5417C174.625 70.4583 174.583 70.3611 174.583 70.25C174.583 70.1389 174.625 70.0417 174.708 69.9583C174.792 69.875 174.889 69.8333 175 69.8333C175.111 69.8333 175.208 69.875 175.292 69.9583C175.375 70.0417 175.417 70.1389 175.417 70.25C175.417 70.3611 175.375 70.4583 175.292 70.5417C175.208 70.625 175.111 70.6667 175 70.6667ZM176.667 69C176.556 69 176.458 68.9583 176.375 68.875C176.292 68.7917 176.25 68.6944 176.25 68.5833C176.25 68.4722 176.292 68.375 176.375 68.2917C176.458 68.2083 176.556 68.1667 176.667 68.1667C176.778 68.1667 176.875 68.2083 176.958 68.2917C177.042 68.375 177.083 68.4722 177.083 68.5833C177.083 68.6944 177.042 68.7917 176.958 68.875C176.875 68.9583 176.778 69 176.667 69ZM177.5 68.1667C177.389 68.1667 177.292 68.125 177.208 68.0417C177.125 67.9583 177.083 67.8611 177.083 67.75C177.083 67.6389 177.125 67.5417 177.208 67.4583C177.292 67.375 177.389 67.3333 177.5 67.3333C177.611 67.3333 177.708 67.375 177.792 67.4583C177.875 67.5417 177.917 67.6389 177.917 67.75C177.917 67.8611 177.875 67.9583 177.792 68.0417C177.708 68.125 177.611 68.1667 177.5 68.1667ZM179.167 68.1667C179.056 68.1667 178.958 68.125 178.875 68.0417C178.792 67.9583 178.75 67.8611 178.75 67.75C178.75 67.6389 178.792 67.5417 178.875 67.4583C178.958 67.375 179.056 67.3333 179.167 67.3333C179.278 67.3333 179.375 67.375 179.458 67.4583C179.542 67.5417 179.583 67.6389 179.583 67.75C179.583 67.8611 179.542 67.9583 179.458 68.0417C179.375 68.125 179.278 68.1667 179.167 68.1667ZM180.833 68.1667C180.722 68.1667 180.625 68.125 180.542 68.0417C180.458 67.9583 180.417 67.8611 180.417 67.75C180.417 67.6389 180.458 67.5417 180.542 67.4583C180.625 67.375 180.722 67.3333 180.833 67.3333C180.944 67.3333 181.042 67.375 181.125 67.4583C181.208 67.5417 181.25 67.6389 181.25 67.75C181.25 67.8611 181.208 67.9583 181.125 68.0417C181.042 68.125 180.944 68.1667 180.833 68.1667ZM182.5 68.1667C182.389 68.1667 182.292 68.125 182.208 68.0417C182.125 67.9583 182.083 67.8611 182.083 67.75C182.083 67.6389 182.125 67.5417 182.208 67.4583C182.292 67.375 182.389 67.3333 182.5 67.3333C182.611 67.3333 182.708 67.375 182.792 67.4583C182.875 67.5417 182.917 67.6389 182.917 67.75C182.917 67.8611 182.875 67.9583 182.792 68.0417C182.708 68.125 182.611 68.1667 182.5 68.1667ZM183.333 69C183.222 69 183.125 68.9583 183.042 68.875C182.958 68.7917 182.917 68.6944 182.917 68.5833C182.917 68.4722 182.958 68.375 183.042 68.2917C183.125 68.2083 183.222 68.1667 183.333 68.1667C183.444 68.1667 183.542 68.2083 183.625 68.2917C183.708 68.375 183.75 68.4722 183.75 68.5833C183.75 68.6944 183.708 68.7917 183.625 68.875C183.542 68.9583 183.444 69 183.333 69ZM185 70.6667C184.889 70.6667 184.792 70.625 184.708 70.5417C184.625 70.4583 184.583 70.3611 184.583 70.25C184.583 70.1389 184.625 70.0417 184.708 69.9583C184.792 69.875 184.889 69.8333 185 69.8333C185.111 69.8333 185.208 69.875 185.292 69.9583C185.375 70.0417 185.417 70.1389 185.417 70.25C185.417 70.3611 185.375 70.4583 185.292 70.5417C185.208 70.625 185.111 70.6667 185 70.6667ZM185.833 71.5C185.722 71.5 185.625 71.4583 185.542 71.375C185.458 71.2917 185.417 71.1944 185.417 71.0833C185.417 70.9722 185.458 70.875 185.542 70.7917C185.625 70.7083 185.722 70.6667 185.833 70.6667C185.944 70.6667 186.042 70.7083 186.125 70.7917C186.208 70.875 186.25 70.9722 186.25 71.0833C186.25 71.1944 186.208 71.2917 186.125 71.375C186.042 71.4583 185.944 71.5 185.833 71.5ZM177.5 75.875C177.208 75.875 176.962 75.7743 176.76 75.5729C176.559 75.3715 176.458 75.125 176.458 74.8333C176.458 74.5417 176.559 74.2951 176.76 74.0938C176.962 73.8924 177.208 73.7917 177.5 73.7917C177.792 73.7917 178.038 73.8924 178.24 74.0938C178.441 74.2951 178.542 74.5417 178.542 74.8333C178.542 75.125 178.441 75.3715 178.24 75.5729C178.038 75.7743 177.792 75.875 177.5 75.875ZM182.5 75.875C182.208 75.875 181.962 75.7743 181.76 75.5729C181.559 75.3715 181.458 75.125 181.458 74.8333C181.458 74.5417 181.559 74.2951 181.76 74.0938C181.962 73.8924 182.208 73.7917 182.5 73.7917C182.792 73.7917 183.038 73.8924 183.24 74.0938C183.441 74.2951 183.542 74.5417 183.542 74.8333C183.542 75.125 183.441 75.3715 183.24 75.5729C183.038 75.7743 182.792 75.875 182.5 75.875ZM180 82.3333C178.861 82.3333 177.785 82.1146 176.771 81.6771C175.757 81.2396 174.872 80.6424 174.115 79.8854C173.358 79.1285 172.76 78.2431 172.323 77.2292C171.885 76.2153 171.667 75.1389 171.667 74C171.667 72.8472 171.885 71.7639 172.323 70.75C172.76 69.7361 173.358 68.8542 174.115 68.1042C174.872 67.3542 175.757 66.7604 176.771 66.3229C177.785 65.8854 178.861 65.6667 180 65.6667C181.153 65.6667 182.236 65.8854 183.25 66.3229C184.264 66.7604 185.146 67.3542 185.896 68.1042C186.646 68.8542 187.24 69.7361 187.677 70.75C188.115 71.7639 188.333 72.8472 188.333 74C188.333 75.1389 188.115 76.2153 187.677 77.2292C187.24 78.2431 186.646 79.1285 185.896 79.8854C185.146 80.6424 184.264 81.2396 183.25 81.6771C182.236 82.1146 181.153 82.3333 180 82.3333ZM180 80.6667C181.861 80.6667 183.438 80.0174 184.729 78.7188C186.021 77.4201 186.667 75.8472 186.667 74C186.667 72.1389 186.021 70.5625 184.729 69.2708C183.438 67.9792 181.861 67.3333 180 67.3333C178.153 67.3333 176.58 67.9792 175.281 69.2708C173.983 70.5625 173.333 72.1389 173.333 74C173.333 75.8472 173.983 77.4201 175.281 78.7188C176.58 80.0174 178.153 80.6667 180 80.6667Z"/>
</mask>
<path d="M180 69C179.889 69 179.792 68.9583 179.708 68.875C179.625 68.7917 179.583 68.6944 179.583 68.5833C179.583 68.4722 179.625 68.375 179.708 68.2917C179.792 68.2083 179.889 68.1667 180 68.1667C180.111 68.1667 180.208 68.2083 180.292 68.2917C180.375 68.375 180.417 68.4722 180.417 68.5833C180.417 68.6944 180.375 68.7917 180.292 68.875C180.208 68.9583 180.111 69 180 69ZM181.667 69C181.556 69 181.458 68.9583 181.375 68.875C181.292 68.7917 181.25 68.6944 181.25 68.5833C181.25 68.4722 181.292 68.375 181.375 68.2917C181.458 68.2083 181.556 68.1667 181.667 68.1667C181.778 68.1667 181.875 68.2083 181.958 68.2917C182.042 68.375 182.083 68.4722 182.083 68.5833C182.083 68.6944 182.042 68.7917 181.958 68.875C181.875 68.9583 181.778 69 181.667 69ZM178.333 69C178.222 69 178.125 68.9583 178.042 68.875C177.958 68.7917 177.917 68.6944 177.917 68.5833C177.917 68.4722 177.958 68.375 178.042 68.2917C178.125 68.2083 178.222 68.1667 178.333 68.1667C178.444 68.1667 178.542 68.2083 178.625 68.2917C178.708 68.375 178.75 68.4722 178.75 68.5833C178.75 68.6944 178.708 68.7917 178.625 68.875C178.542 68.9583 178.444 69 178.333 69ZM184.167 69.8333C184.056 69.8333 183.958 69.7917 183.875 69.7083C183.792 69.625 183.75 69.5278 183.75 69.4167C183.75 69.3056 183.792 69.2083 183.875 69.125C183.958 69.0417 184.056 69 184.167 69C184.278 69 184.375 69.0417 184.458 69.125C184.542 69.2083 184.583 69.3056 184.583 69.4167C184.583 69.5278 184.542 69.625 184.458 69.7083C184.375 69.7917 184.278 69.8333 184.167 69.8333ZM177.5 69.8333C177.389 69.8333 177.292 69.7917 177.208 69.7083C177.125 69.625 177.083 69.5278 177.083 69.4167C177.083 69.3056 177.125 69.2083 177.208 69.125C177.292 69.0417 177.389 69 177.5 69C177.611 69 177.708 69.0417 177.792 69.125C177.875 69.2083 177.917 69.3056 177.917 69.4167C177.917 69.5278 177.875 69.625 177.792 69.7083C177.708 69.7917 177.611 69.8333 177.5 69.8333ZM175.833 69.8333C175.722 69.8333 175.625 69.7917 175.542 69.7083C175.458 69.625 175.417 69.5278 175.417 69.4167C175.417 69.3056 175.458 69.2083 175.542 69.125C175.625 69.0417 175.722 69 175.833 69C175.944 69 176.042 69.0417 176.125 69.125C176.208 69.2083 176.25 69.3056 176.25 69.4167C176.25 69.5278 176.208 69.625 176.125 69.7083C176.042 69.7917 175.944 69.8333 175.833 69.8333ZM179.167 69.8333C179.056 69.8333 178.958 69.7917 178.875 69.7083C178.792 69.625 178.75 69.5278 178.75 69.4167C178.75 69.3056 178.792 69.2083 178.875 69.125C178.958 69.0417 179.056 69 179.167 69C179.278 69 179.375 69.0417 179.458 69.125C179.542 69.2083 179.583 69.3056 179.583 69.4167C179.583 69.5278 179.542 69.625 179.458 69.7083C179.375 69.7917 179.278 69.8333 179.167 69.8333ZM180.833 69.8333C180.722 69.8333 180.625 69.7917 180.542 69.7083C180.458 69.625 180.417 69.5278 180.417 69.4167C180.417 69.3056 180.458 69.2083 180.542 69.125C180.625 69.0417 180.722 69 180.833 69C180.944 69 181.042 69.0417 181.125 69.125C181.208 69.2083 181.25 69.3056 181.25 69.4167C181.25 69.5278 181.208 69.625 181.125 69.7083C181.042 69.7917 180.944 69.8333 180.833 69.8333ZM182.5 69.8333C182.389 69.8333 182.292 69.7917 182.208 69.7083C182.125 69.625 182.083 69.5278 182.083 69.4167C182.083 69.3056 182.125 69.2083 182.208 69.125C182.292 69.0417 182.389 69 182.5 69C182.611 69 182.708 69.0417 182.792 69.125C182.875 69.2083 182.917 69.3056 182.917 69.4167C182.917 69.5278 182.875 69.625 182.792 69.7083C182.708 69.7917 182.611 69.8333 182.5 69.8333ZM180 70.6667C179.889 70.6667 179.792 70.625 179.708 70.5417C179.625 70.4583 179.583 70.3611 179.583 70.25C179.583 70.1389 179.625 70.0417 179.708 69.9583C179.792 69.875 179.889 69.8333 180 69.8333C180.111 69.8333 180.208 69.875 180.292 69.9583C180.375 70.0417 180.417 70.1389 180.417 70.25C180.417 70.3611 180.375 70.4583 180.292 70.5417C180.208 70.625 180.111 70.6667 180 70.6667ZM181.667 70.6667C181.556 70.6667 181.458 70.625 181.375 70.5417C181.292 70.4583 181.25 70.3611 181.25 70.25C181.25 70.1389 181.292 70.0417 181.375 69.9583C181.458 69.875 181.556 69.8333 181.667 69.8333C181.778 69.8333 181.875 69.875 181.958 69.9583C182.042 70.0417 182.083 70.1389 182.083 70.25C182.083 70.3611 182.042 70.4583 181.958 70.5417C181.875 70.625 181.778 70.6667 181.667 70.6667ZM183.333 70.6667C183.222 70.6667 183.125 70.625 183.042 70.5417C182.958 70.4583 182.917 70.3611 182.917 70.25C182.917 70.1389 182.958 70.0417 183.042 69.9583C183.125 69.875 183.222 69.8333 183.333 69.8333C183.444 69.8333 183.542 69.875 183.625 69.9583C183.708 70.0417 183.75 70.1389 183.75 70.25C183.75 70.3611 183.708 70.4583 183.625 70.5417C183.542 70.625 183.444 70.6667 183.333 70.6667ZM178.333 70.6667C178.222 70.6667 178.125 70.625 178.042 70.5417C177.958 70.4583 177.917 70.3611 177.917 70.25C177.917 70.1389 177.958 70.0417 178.042 69.9583C178.125 69.875 178.222 69.8333 178.333 69.8333C178.444 69.8333 178.542 69.875 178.625 69.9583C178.708 70.0417 178.75 70.1389 178.75 70.25C178.75 70.3611 178.708 70.4583 178.625 70.5417C178.542 70.625 178.444 70.6667 178.333 70.6667ZM176.667 70.6667C176.556 70.6667 176.458 70.625 176.375 70.5417C176.292 70.4583 176.25 70.3611 176.25 70.25C176.25 70.1389 176.292 70.0417 176.375 69.9583C176.458 69.875 176.556 69.8333 176.667 69.8333C176.778 69.8333 176.875 69.875 176.958 69.9583C177.042 70.0417 177.083 70.1389 177.083 70.25C177.083 70.3611 177.042 70.4583 176.958 70.5417C176.875 70.625 176.778 70.6667 176.667 70.6667ZM177.5 71.5C177.389 71.5 177.292 71.4583 177.208 71.375C177.125 71.2917 177.083 71.1944 177.083 71.0833C177.083 70.9722 177.125 70.875 177.208 70.7917C177.292 70.7083 177.389 70.6667 177.5 70.6667C177.611 70.6667 177.708 70.7083 177.792 70.7917C177.875 70.875 177.917 70.9722 177.917 71.0833C177.917 71.1944 177.875 71.2917 177.792 71.375C177.708 71.4583 177.611 71.5 177.5 71.5ZM175.833 71.5C175.722 71.5 175.625 71.4583 175.542 71.375C175.458 71.2917 175.417 71.1944 175.417 71.0833C175.417 70.9722 175.458 70.875 175.542 70.7917C175.625 70.7083 175.722 70.6667 175.833 70.6667C175.944 70.6667 176.042 70.7083 176.125 70.7917C176.208 70.875 176.25 70.9722 176.25 71.0833C176.25 71.1944 176.208 71.2917 176.125 71.375C176.042 71.4583 175.944 71.5 175.833 71.5ZM179.167 71.5C179.056 71.5 178.958 71.4583 178.875 71.375C178.792 71.2917 178.75 71.1944 178.75 71.0833C178.75 70.9722 178.792 70.875 178.875 70.7917C178.958 70.7083 179.056 70.6667 179.167 70.6667C179.278 70.6667 179.375 70.7083 179.458 70.7917C179.542 70.875 179.583 70.9722 179.583 71.0833C179.583 71.1944 179.542 71.2917 179.458 71.375C179.375 71.4583 179.278 71.5 179.167 71.5ZM180.833 71.5C180.722 71.5 180.625 71.4583 180.542 71.375C180.458 71.2917 180.417 71.1944 180.417 71.0833C180.417 70.9722 180.458 70.875 180.542 70.7917C180.625 70.7083 180.722 70.6667 180.833 70.6667C180.944 70.6667 181.042 70.7083 181.125 70.7917C181.208 70.875 181.25 70.9722 181.25 71.0833C181.25 71.1944 181.208 71.2917 181.125 71.375C181.042 71.4583 180.944 71.5 180.833 71.5ZM182.5 71.5C182.389 71.5 182.292 71.4583 182.208 71.375C182.125 71.2917 182.083 71.1944 182.083 71.0833C182.083 70.9722 182.125 70.875 182.208 70.7917C182.292 70.7083 182.389 70.6667 182.5 70.6667C182.611 70.6667 182.708 70.7083 182.792 70.7917C182.875 70.875 182.917 70.9722 182.917 71.0833C182.917 71.1944 182.875 71.2917 182.792 71.375C182.708 71.4583 182.611 71.5 182.5 71.5ZM184.167 71.5C184.056 71.5 183.958 71.4583 183.875 71.375C183.792 71.2917 183.75 71.1944 183.75 71.0833C183.75 70.9722 183.792 70.875 183.875 70.7917C183.958 70.7083 184.056 70.6667 184.167 70.6667C184.278 70.6667 184.375 70.7083 184.458 70.7917C184.542 70.875 184.583 70.9722 184.583 71.0833C184.583 71.1944 184.542 71.2917 184.458 71.375C184.375 71.4583 184.278 71.5 184.167 71.5ZM174.167 71.5C174.056 71.5 173.958 71.4583 173.875 71.375C173.792 71.2917 173.75 71.1944 173.75 71.0833C173.75 70.9722 173.792 70.875 173.875 70.7917C173.958 70.7083 174.056 70.6667 174.167 70.6667C174.278 70.6667 174.375 70.7083 174.458 70.7917C174.542 70.875 174.583 70.9722 174.583 71.0833C174.583 71.1944 174.542 71.2917 174.458 71.375C174.375 71.4583 174.278 71.5 174.167 71.5ZM175 70.6667C174.889 70.6667 174.792 70.625 174.708 70.5417C174.625 70.4583 174.583 70.3611 174.583 70.25C174.583 70.1389 174.625 70.0417 174.708 69.9583C174.792 69.875 174.889 69.8333 175 69.8333C175.111 69.8333 175.208 69.875 175.292 69.9583C175.375 70.0417 175.417 70.1389 175.417 70.25C175.417 70.3611 175.375 70.4583 175.292 70.5417C175.208 70.625 175.111 70.6667 175 70.6667ZM176.667 69C176.556 69 176.458 68.9583 176.375 68.875C176.292 68.7917 176.25 68.6944 176.25 68.5833C176.25 68.4722 176.292 68.375 176.375 68.2917C176.458 68.2083 176.556 68.1667 176.667 68.1667C176.778 68.1667 176.875 68.2083 176.958 68.2917C177.042 68.375 177.083 68.4722 177.083 68.5833C177.083 68.6944 177.042 68.7917 176.958 68.875C176.875 68.9583 176.778 69 176.667 69ZM177.5 68.1667C177.389 68.1667 177.292 68.125 177.208 68.0417C177.125 67.9583 177.083 67.8611 177.083 67.75C177.083 67.6389 177.125 67.5417 177.208 67.4583C177.292 67.375 177.389 67.3333 177.5 67.3333C177.611 67.3333 177.708 67.375 177.792 67.4583C177.875 67.5417 177.917 67.6389 177.917 67.75C177.917 67.8611 177.875 67.9583 177.792 68.0417C177.708 68.125 177.611 68.1667 177.5 68.1667ZM179.167 68.1667C179.056 68.1667 178.958 68.125 178.875 68.0417C178.792 67.9583 178.75 67.8611 178.75 67.75C178.75 67.6389 178.792 67.5417 178.875 67.4583C178.958 67.375 179.056 67.3333 179.167 67.3333C179.278 67.3333 179.375 67.375 179.458 67.4583C179.542 67.5417 179.583 67.6389 179.583 67.75C179.583 67.8611 179.542 67.9583 179.458 68.0417C179.375 68.125 179.278 68.1667 179.167 68.1667ZM180.833 68.1667C180.722 68.1667 180.625 68.125 180.542 68.0417C180.458 67.9583 180.417 67.8611 180.417 67.75C180.417 67.6389 180.458 67.5417 180.542 67.4583C180.625 67.375 180.722 67.3333 180.833 67.3333C180.944 67.3333 181.042 67.375 181.125 67.4583C181.208 67.5417 181.25 67.6389 181.25 67.75C181.25 67.8611 181.208 67.9583 181.125 68.0417C181.042 68.125 180.944 68.1667 180.833 68.1667ZM182.5 68.1667C182.389 68.1667 182.292 68.125 182.208 68.0417C182.125 67.9583 182.083 67.8611 182.083 67.75C182.083 67.6389 182.125 67.5417 182.208 67.4583C182.292 67.375 182.389 67.3333 182.5 67.3333C182.611 67.3333 182.708 67.375 182.792 67.4583C182.875 67.5417 182.917 67.6389 182.917 67.75C182.917 67.8611 182.875 67.9583 182.792 68.0417C182.708 68.125 182.611 68.1667 182.5 68.1667ZM183.333 69C183.222 69 183.125 68.9583 183.042 68.875C182.958 68.7917 182.917 68.6944 182.917 68.5833C182.917 68.4722 182.958 68.375 183.042 68.2917C183.125 68.2083 183.222 68.1667 183.333 68.1667C183.444 68.1667 183.542 68.2083 183.625 68.2917C183.708 68.375 183.75 68.4722 183.75 68.5833C183.75 68.6944 183.708 68.7917 183.625 68.875C183.542 68.9583 183.444 69 183.333 69ZM185 70.6667C184.889 70.6667 184.792 70.625 184.708 70.5417C184.625 70.4583 184.583 70.3611 184.583 70.25C184.583 70.1389 184.625 70.0417 184.708 69.9583C184.792 69.875 184.889 69.8333 185 69.8333C185.111 69.8333 185.208 69.875 185.292 69.9583C185.375 70.0417 185.417 70.1389 185.417 70.25C185.417 70.3611 185.375 70.4583 185.292 70.5417C185.208 70.625 185.111 70.6667 185 70.6667ZM185.833 71.5C185.722 71.5 185.625 71.4583 185.542 71.375C185.458 71.2917 185.417 71.1944 185.417 71.0833C185.417 70.9722 185.458 70.875 185.542 70.7917C185.625 70.7083 185.722 70.6667 185.833 70.6667C185.944 70.6667 186.042 70.7083 186.125 70.7917C186.208 70.875 186.25 70.9722 186.25 71.0833C186.25 71.1944 186.208 71.2917 186.125 71.375C186.042 71.4583 185.944 71.5 185.833 71.5ZM177.5 75.875C177.208 75.875 176.962 75.7743 176.76 75.5729C176.559 75.3715 176.458 75.125 176.458 74.8333C176.458 74.5417 176.559 74.2951 176.76 74.0938C176.962 73.8924 177.208 73.7917 177.5 73.7917C177.792 73.7917 178.038 73.8924 178.24 74.0938C178.441 74.2951 178.542 74.5417 178.542 74.8333C178.542 75.125 178.441 75.3715 178.24 75.5729C178.038 75.7743 177.792 75.875 177.5 75.875ZM182.5 75.875C182.208 75.875 181.962 75.7743 181.76 75.5729C181.559 75.3715 181.458 75.125 181.458 74.8333C181.458 74.5417 181.559 74.2951 181.76 74.0938C181.962 73.8924 182.208 73.7917 182.5 73.7917C182.792 73.7917 183.038 73.8924 183.24 74.0938C183.441 74.2951 183.542 74.5417 183.542 74.8333C183.542 75.125 183.441 75.3715 183.24 75.5729C183.038 75.7743 182.792 75.875 182.5 75.875ZM180 82.3333C178.861 82.3333 177.785 82.1146 176.771 81.6771C175.757 81.2396 174.872 80.6424 174.115 79.8854C173.358 79.1285 172.76 78.2431 172.323 77.2292C171.885 76.2153 171.667 75.1389 171.667 74C171.667 72.8472 171.885 71.7639 172.323 70.75C172.76 69.7361 173.358 68.8542 174.115 68.1042C174.872 67.3542 175.757 66.7604 176.771 66.3229C177.785 65.8854 178.861 65.6667 180 65.6667C181.153 65.6667 182.236 65.8854 183.25 66.3229C184.264 66.7604 185.146 67.3542 185.896 68.1042C186.646 68.8542 187.24 69.7361 187.677 70.75C188.115 71.7639 188.333 72.8472 188.333 74C188.333 75.1389 188.115 76.2153 187.677 77.2292C187.24 78.2431 186.646 79.1285 185.896 79.8854C185.146 80.6424 184.264 81.2396 183.25 81.6771C182.236 82.1146 181.153 82.3333 180 82.3333ZM180 80.6667C181.861 80.6667 183.438 80.0174 184.729 78.7188C186.021 77.4201 186.667 75.8472 186.667 74C186.667 72.1389 186.021 70.5625 184.729 69.2708C183.438 67.9792 181.861 67.3333 180 67.3333C178.153 67.3333 176.58 67.9792 175.281 69.2708C173.983 70.5625 173.333 72.1389 173.333 74C173.333 75.8472 173.983 77.4201 175.281 78.7188C176.58 80.0174 178.153 80.6667 180 80.6667Z" fill="#1C1B1F" stroke="#7A35DB" stroke-width="0.05" mask="url(#path-16-inside-1_221_180)"/>
</g>
</svg>
