<?xml version="1.0" encoding="UTF-8" standalone="no"?>
<!-- Created with Inkscape (http://www.inkscape.org/) -->

<svg
   width="127.99999"
   height="128"
   viewBox="0 0 33.866664 33.866667"
   version="1.1"
   id="svg1"
   xmlns="http://www.w3.org/2000/svg"
   xmlns:svg="http://www.w3.org/2000/svg">
  <defs
     id="defs1" />
  <g
     id="layer1"
     transform="translate(-76.156091)">
    <path
       id="rect1-2-6"
       style="fill:#f7f8f8;fill-opacity:1;stroke-width:2.09171;stroke-linecap:round;stroke-linejoin:round;paint-order:stroke fill markers"
       d="m 0,6.3640499 v 8.4526141 a 1.0583333,1.0583333 45 0 0 1.0583333,1.058333 h 9.5249977 a 1.0583363,1.0583363 45 0 1 1.058336,1.058336 l 0,10.583331 A 1.0583333,1.0583333 45 0 0 12.7,28.574997 h 8.466668 A 1.0583321,1.0583321 135 0 0 22.225,27.516665 V 6.3499997 a 1.058334,1.058334 45 0 0 -1.058334,-1.058334 l -20.0942818,0 A 1.0723842,1.0723842 135 0 0 0,6.3640499 Z m 24.341667,-0.01405 v 8.4666654 a 1.0583322,1.0583322 45 0 0 1.058332,1.058332 l 7.41827,0 A 1.0483975,1.0483975 135 0 0 33.866667,14.8266 V 6.3500004 A 1.0583347,1.0583347 45 0 0 32.808332,5.2916657 l -7.408331,0 A 1.0583339,1.0583339 135 0 0 24.341667,6.3499996 Z M 0,19.035945 v 8.480719 a 1.0583333,1.0583333 45 0 0 1.0583333,1.058333 H 8.4666679 A 1.0583321,1.0583321 135 0 0 9.525,27.516665 V 19.049997 A 1.0583336,1.0583336 45 0 0 8.4666664,17.991663 H 1.0442823 A 1.0442823,1.0442823 135 0 0 0,19.035945 Z"
       transform="translate(76.156091)" />
  </g>
</svg>
