<?xml version="1.0" encoding="UTF-8" standalone="no"?>
<!-- Created with Inkscape (http://www.inkscape.org/) -->

<svg
   width="128"
   height="128"
   viewBox="0 0 33.866666 33.866667"
   version="1.1"
   id="svg1"
   sodipodi:docname="taskspaces logo.svg"
   inkscape:version="1.3.2 (091e20e, 2023-11-25)"
   xmlns:inkscape="http://www.inkscape.org/namespaces/inkscape"
   xmlns:sodipodi="http://sodipodi.sourceforge.net/DTD/sodipodi-0.dtd"
   xmlns="http://www.w3.org/2000/svg"
   xmlns:svg="http://www.w3.org/2000/svg">
  <sodipodi:namedview
     id="namedview1"
     pagecolor="#ffffff"
     bordercolor="#999999"
     borderopacity="0"
     inkscape:showpageshadow="2"
     inkscape:pageopacity="0"
     inkscape:pagecheckerboard="true"
     inkscape:deskcolor="#767676"
     inkscape:document-units="mm"
     showgrid="true"
     inkscape:zoom="2"
     inkscape:cx="163.25"
     inkscape:cy="57.75"
     inkscape:window-width="1920"
     inkscape:window-height="1026"
     inkscape:window-x="0"
     inkscape:window-y="22"
     inkscape:window-maximized="1"
     inkscape:current-layer="layer1">
    <inkscape:grid
       id="grid1"
       units="px"
       originx="0"
       originy="0"
       spacingx="1.0583333"
       spacingy="1.0583333"
       empcolor="#0099e5"
       empopacity="0.30196078"
       color="#0099e5"
       opacity="0.14901961"
       empspacing="4"
       dotted="false"
       gridanglex="30"
       gridanglez="30"
       visible="false" />
    <inkscape:page
       x="0"
       y="0"
       width="33.866665"
       height="33.866669"
       id="page3"
       margin="0"
       bleed="0"
       inkscape:export-filename="logo.svg"
       inkscape:export-xdpi="96"
       inkscape:export-ydpi="96" />
    <inkscape:page
       x="37.986607"
       y="0"
       width="33.866665"
       height="33.866669"
       id="page4"
       margin="0"
       bleed="0" />
    <inkscape:page
       x="76.15609"
       y="0"
       width="33.866665"
       height="33.866669"
       id="page5"
       margin="0"
       bleed="0" />
  </sodipodi:namedview>
  <defs
     id="defs1">
    <inkscape:path-effect
       effect="fillet_chamfer"
       id="path-effect6"
       is_visible="true"
       lpeversion="1"
       nodesatellites_param="F,0,0,1,0,1.0583325,0,1 @ F,0,0,1,0,1.0583322,0,1 @ F,0,0,1,0,1.0583331,0,1 @ F,0,0,1,0,1.0227566,0,1"
       radius="0"
       unit="px"
       method="auto"
       mode="F"
       chamfer_steps="1"
       flexible="false"
       use_knot_distance="true"
       apply_no_radius="true"
       apply_with_radius="true"
       only_selected="false"
       hide_knots="false" />
    <inkscape:path-effect
       effect="fillet_chamfer"
       id="path-effect5"
       is_visible="true"
       lpeversion="1"
       nodesatellites_param="F,0,0,1,0,1.0483975,0,1 @ F,0,0,1,0,1.0717291,0,1 @ F,0,0,1,0,1.0583321,0,1 @ F,0,0,1,0,1.0583333,0,1"
       radius="0"
       unit="px"
       method="auto"
       mode="F"
       chamfer_steps="1"
       flexible="false"
       use_knot_distance="true"
       apply_no_radius="true"
       apply_with_radius="true"
       only_selected="false"
       hide_knots="false" />
    <inkscape:path-effect
       effect="fillet_chamfer"
       id="path-effect3"
       is_visible="true"
       lpeversion="1"
       nodesatellites_param="F,0,0,1,0,1.0723842,0,1 @ F,0,0,1,0,1.0583333,0,1 @ F,0,0,1,0,1.0583363,0,1 @ F,0,0,1,0,1.0583333,0,1 @ F,0,0,1,0,1.0583321,0,1 @ F,0,0,1,0,1.058334,0,1"
       radius="0"
       unit="px"
       method="auto"
       mode="F"
       chamfer_steps="1"
       flexible="false"
       use_knot_distance="true"
       apply_no_radius="true"
       apply_with_radius="true"
       only_selected="false"
       hide_knots="false" />
    <inkscape:path-effect
       effect="fillet_chamfer"
       id="path-effect3-9"
       is_visible="true"
       lpeversion="1"
       nodesatellites_param="F,0,0,1,0,1.0723842,0,1 @ F,0,0,1,0,1.0583333,0,1 @ F,0,0,1,0,1.0583363,0,1 @ F,0,0,1,0,1.0583333,0,1 @ F,0,0,1,0,1.0583321,0,1 @ F,0,0,1,0,1.058334,0,1 | F,0,0,1,0,1.0583339,0,1 @ F,0,0,1,0,1.0583322,0,1 @ F,0,0,1,0,1.0483975,0,1 @ F,0,0,1,0,1.0583347,0,1 | F,0,0,1,0,1.0442823,0,1 @ F,0,0,1,0,1.0583333,0,1 @ F,0,0,1,0,1.0583321,0,1 @ F,0,0,1,0,1.0583336,0,1"
       radius="0"
       unit="px"
       method="auto"
       mode="F"
       chamfer_steps="1"
       flexible="false"
       use_knot_distance="true"
       apply_no_radius="true"
       apply_with_radius="true"
       only_selected="false"
       hide_knots="false" />
    <inkscape:path-effect
       effect="fillet_chamfer"
       id="path-effect3-9-9"
       is_visible="true"
       lpeversion="1"
       nodesatellites_param="F,0,0,1,0,1.0723842,0,1 @ F,0,0,1,0,1.0583333,0,1 @ F,0,0,1,0,1.0583363,0,1 @ F,0,0,1,0,1.0583333,0,1 @ F,0,0,1,0,1.0583321,0,1 @ F,0,0,1,0,1.058334,0,1 | F,0,0,1,0,1.0583339,0,1 @ F,0,0,1,0,1.0583322,0,1 @ F,0,0,1,0,1.0483975,0,1 @ F,0,0,1,0,1.0583347,0,1 | F,0,0,1,0,1.0442823,0,1 @ F,0,0,1,0,1.0583333,0,1 @ F,0,0,1,0,1.0583321,0,1 @ F,0,0,1,0,1.0583336,0,1"
       radius="0"
       unit="px"
       method="auto"
       mode="F"
       chamfer_steps="1"
       flexible="false"
       use_knot_distance="true"
       apply_no_radius="true"
       apply_with_radius="true"
       only_selected="false"
       hide_knots="false" />
  </defs>
  <g
     inkscape:label="Layer 1"
     inkscape:groupmode="layer"
     id="layer1">
    <path
       id="rect1"
       style="fill:#7a35db;fill-opacity:1;stroke-width:2.09171;stroke-linecap:round;stroke-linejoin:round;paint-order:stroke fill markers"
       d="m 0,6.3640499 v 8.4526141 a 1.0583333,1.0583333 45 0 0 1.0583333,1.058333 h 9.5249977 a 1.0583363,1.0583363 45 0 1 1.058336,1.058336 l 0,10.583331 A 1.0583333,1.0583333 45 0 0 12.7,28.574997 h 8.466668 A 1.0583321,1.0583321 135 0 0 22.225,27.516665 V 6.3499997 A 1.058334,1.058334 45 0 0 21.166666,5.2916657 H 1.0723842 A 1.0723842,1.0723842 135 0 0 0,6.3640499 Z"
       sodipodi:nodetypes="ccccccc"
       inkscape:path-effect="#path-effect3"
       inkscape:original-d="M 0,5.2916657 V 15.874997 h 11.641667 v 12.7 H 22.225 V 5.2916657 Z" />
    <path
       id="rect1-2"
       style="stroke-width:2.09171;stroke-linecap:round;stroke-linejoin:round;paint-order:stroke fill markers;fill:#21232b;fill-opacity:1"
       d="m 0,6.3640499 v 8.4526141 a 1.0583333,1.0583333 45 0 0 1.0583333,1.058333 h 9.5249977 a 1.0583363,1.0583363 45 0 1 1.058336,1.058336 l 0,10.583331 A 1.0583333,1.0583333 45 0 0 12.7,28.574997 h 8.466668 A 1.0583321,1.0583321 135 0 0 22.225,27.516665 V 6.3499997 a 1.058334,1.058334 45 0 0 -1.058334,-1.058334 l -20.0942818,0 A 1.0723842,1.0723842 135 0 0 0,6.3640499 Z m 24.341667,-0.01405 v 8.4666654 a 1.0583322,1.0583322 45 0 0 1.058332,1.058332 l 7.41827,0 A 1.0483975,1.0483975 135 0 0 33.866667,14.8266 V 6.3500004 A 1.0583347,1.0583347 45 0 0 32.808332,5.2916657 l -7.408331,0 A 1.0583339,1.0583339 135 0 0 24.341667,6.3499996 Z M 0,19.035945 v 8.480719 a 1.0583333,1.0583333 45 0 0 1.0583333,1.058333 H 8.4666679 A 1.0583321,1.0583321 135 0 0 9.525,27.516665 V 19.049997 A 1.0583336,1.0583336 45 0 0 8.4666664,17.991663 H 1.0442823 A 1.0442823,1.0442823 135 0 0 0,19.035945 Z"
       sodipodi:nodetypes="ccccccccccccccccc"
       inkscape:path-effect="#path-effect3-9"
       inkscape:original-d="m 0,5.2916657 c 0,3.5277771 0,7.0555543 0,10.5833313 3.8805557,0 7.7611113,0 11.641667,0 0,4.233333 0,8.466667 0,12.7 3.527778,0 7.055555,0 10.583333,0 0,-7.76111 0,-15.522221 0,-23.2833313 -7.408333,0 -14.8166667,0 -22.225,0 z m 24.341667,0 c 0,3.5277771 0,7.0555543 0,10.5833313 3.175,0 6.35,0 9.525,0 0,-3.527777 0,-7.0555542 0,-10.5833313 -3.175,0 -6.35,0 -9.525,0 z M 0,17.991663 c 0,3.527778 0,7.055556 0,10.583334 3.175,0 6.35,0 9.525,0 0,-3.527778 0,-7.055556 0,-10.583334 -3.175,0 -6.35,0 -9.525,0 z"
       transform="translate(37.986607)" />
    <path
       id="rect1-2-6"
       style="stroke-width:2.09171;stroke-linecap:round;stroke-linejoin:round;paint-order:stroke fill markers;fill:#f7f8f8;fill-opacity:1"
       d="m 0,6.3640499 v 8.4526141 a 1.0583333,1.0583333 45 0 0 1.0583333,1.058333 h 9.5249977 a 1.0583363,1.0583363 45 0 1 1.058336,1.058336 l 0,10.583331 A 1.0583333,1.0583333 45 0 0 12.7,28.574997 h 8.466668 A 1.0583321,1.0583321 135 0 0 22.225,27.516665 V 6.3499997 a 1.058334,1.058334 45 0 0 -1.058334,-1.058334 l -20.0942818,0 A 1.0723842,1.0723842 135 0 0 0,6.3640499 Z m 24.341667,-0.01405 v 8.4666654 a 1.0583322,1.0583322 45 0 0 1.058332,1.058332 l 7.41827,0 A 1.0483975,1.0483975 135 0 0 33.866667,14.8266 V 6.3500004 A 1.0583347,1.0583347 45 0 0 32.808332,5.2916657 l -7.408331,0 A 1.0583339,1.0583339 135 0 0 24.341667,6.3499996 Z M 0,19.035945 v 8.480719 a 1.0583333,1.0583333 45 0 0 1.0583333,1.058333 H 8.4666679 A 1.0583321,1.0583321 135 0 0 9.525,27.516665 V 19.049997 A 1.0583336,1.0583336 45 0 0 8.4666664,17.991663 H 1.0442823 A 1.0442823,1.0442823 135 0 0 0,19.035945 Z"
       sodipodi:nodetypes="ccccccccccccccccc"
       inkscape:path-effect="#path-effect3-9-9"
       inkscape:original-d="m 0,5.2916657 c 0,3.5277771 0,7.0555543 0,10.5833313 3.8805557,0 7.7611113,0 11.641667,0 0,4.233333 0,8.466667 0,12.7 3.527778,0 7.055555,0 10.583333,0 0,-7.76111 0,-15.522221 0,-23.2833313 -7.408333,0 -14.8166667,0 -22.225,0 z m 24.341667,0 c 0,3.5277771 0,7.0555543 0,10.5833313 3.175,0 6.35,0 9.525,0 0,-3.527777 0,-7.0555542 0,-10.5833313 -3.175,0 -6.35,0 -9.525,0 z M 0,17.991663 c 0,3.527778 0,7.055556 0,10.583334 3.175,0 6.35,0 9.525,0 0,-3.527778 0,-7.055556 0,-10.583334 -3.175,0 -6.35,0 -9.525,0 z"
       transform="translate(76.156091)" />
    <path
       d="m 24.341667,6.3499996 v 8.4666664 a 1.0583322,1.0583322 45 0 0 1.058332,1.058332 h 7.408334 a 1.0583331,1.0583331 135 0 0 1.058333,-1.058333 V 6.3144237 A 1.0227566,1.0227566 45 0 0 32.843909,5.2916671 H 25.4 a 1.0583325,1.0583325 135 0 0 -1.058333,1.0583325 z"
       style="fill:#522197;fill-opacity:1;stroke-width:2.09171;stroke-linecap:round;stroke-linejoin:round;paint-order:stroke fill markers"
       id="path1"
       inkscape:path-effect="#path-effect6"
       inkscape:original-d="M 24.341667,5.2916671 V 15.874998 h 9.524999 V 5.2916671 Z" />
    <path
       d="m 6.8682099e-7,19.040063 v 8.463205 A 1.0717291,1.0717291 45 0 0 1.0717298,28.574997 l 7.3949378,0 A 1.0583321,1.0583321 135 0 0 9.5249997,27.516665 V 19.049999 A 1.0583333,1.0583333 45 0 0 8.4666664,17.991666 H 1.0483982 A 1.0483975,1.0483975 135 0 0 6.8682099e-7,19.040063 Z"
       style="fill:#a87de8;fill-opacity:1;stroke-width:2.09171;stroke-linecap:round;stroke-linejoin:round;paint-order:stroke fill markers"
       id="path1-7"
       inkscape:path-effect="#path-effect5"
       inkscape:original-d="M 6.8682099e-7,17.991666 V 28.574997 H 9.5249997 c -1e-7,-3.924931 0,-7.055554 0,-10.583331 z"
       sodipodi:nodetypes="ccccc" />
  </g>
</svg>
