<svg width="539" height="139" viewBox="0 0 539 139" fill="none" xmlns="http://www.w3.org/2000/svg">
<rect width="539" height="139" rx="16" fill="#21232B" fill-opacity="0.05"/>
<rect x="0.5" y="0.5" width="538" height="138" rx="15.5" stroke="#21232B" stroke-opacity="0.25"/>
<rect x="48" y="53.5" width="32" height="32" rx="16" transform="rotate(90 48 53.5)" fill="#21232B" fill-opacity="0.1"/>
<mask id="mask0_177_75" style="mask-type:alpha" maskUnits="userSpaceOnUse" x="24" y="61" width="16" height="17">
<rect x="24" y="61.5" width="16" height="16" fill="#D9D9D9"/>
</mask>
<g mask="url(#mask0_177_75)">
<path d="M34.6667 76.1667L28 69.5L34.6667 62.8334L35.85 64.0167L30.3667 69.5L35.85 74.9834L34.6667 76.1667Z" fill="#21232B"/>
</g>
<circle cx="112" cy="56" r="32" fill="#3551DB" fill-opacity="0.25"/>
<path d="M84.6072 111.133C83.9229 111.133 83.3098 110.982 82.7677 110.68C82.2345 110.369 81.8124 109.947 81.5013 109.414C81.1903 108.872 81.0348 108.258 81.0348 107.574V101.749H82.2878V107.548C82.2878 108.036 82.39 108.458 82.5944 108.814C82.7988 109.169 83.0743 109.445 83.4208 109.64C83.7763 109.836 84.1718 109.934 84.6072 109.934C85.0604 109.934 85.4559 109.836 85.7936 109.64C86.1402 109.445 86.4112 109.169 86.6067 108.814C86.8111 108.458 86.9133 108.041 86.9133 107.561V101.749H88.1797V107.588C88.1797 108.272 88.0241 108.881 87.7131 109.414C87.4021 109.947 86.98 110.369 86.4468 110.68C85.9136 110.982 85.3004 111.133 84.6072 111.133ZM92.0403 111.133C91.6848 111.133 91.3471 111.089 91.0272 111C90.7161 110.902 90.4273 110.769 90.1607 110.6C89.8941 110.422 89.6631 110.214 89.4676 109.974L90.2407 109.2C90.4718 109.485 90.7384 109.698 91.0405 109.84C91.3426 109.974 91.6803 110.04 92.0536 110.04C92.4268 110.04 92.7156 109.978 92.92 109.854C93.1244 109.72 93.2266 109.538 93.2266 109.307C93.2266 109.076 93.1422 108.898 92.9734 108.774C92.8134 108.641 92.6046 108.534 92.3468 108.454C92.0891 108.365 91.8136 108.281 91.5204 108.201C91.236 108.112 90.965 108.001 90.7073 107.867C90.4495 107.734 90.2363 107.552 90.0674 107.321C89.9075 107.09 89.8275 106.783 89.8275 106.401C89.8275 106.019 89.9208 105.69 90.1074 105.415C90.294 105.13 90.5517 104.913 90.8805 104.762C91.2182 104.61 91.6226 104.535 92.0936 104.535C92.5912 104.535 93.0311 104.624 93.4132 104.802C93.8043 104.97 94.1242 105.228 94.373 105.575L93.5999 106.348C93.4221 106.117 93.2 105.939 92.9334 105.815C92.6756 105.69 92.3824 105.628 92.0536 105.628C91.707 105.628 91.4404 105.69 91.2538 105.815C91.076 105.93 90.9872 106.095 90.9872 106.308C90.9872 106.521 91.0672 106.686 91.2271 106.801C91.3871 106.917 91.5959 107.014 91.8536 107.094C92.1202 107.174 92.3957 107.259 92.6801 107.348C92.9645 107.428 93.2355 107.539 93.4932 107.681C93.7509 107.823 93.9598 108.014 94.1197 108.254C94.2886 108.494 94.373 108.809 94.373 109.2C94.373 109.796 94.1597 110.267 93.7332 110.613C93.3155 110.96 92.7512 111.133 92.0403 111.133ZM98.6487 111.133C98.0178 111.133 97.449 110.991 96.9425 110.707C96.4359 110.413 96.036 110.018 95.7428 109.52C95.4495 109.023 95.3029 108.458 95.3029 107.827C95.3029 107.205 95.4451 106.646 95.7294 106.148C96.0227 105.65 96.4137 105.259 96.9025 104.975C97.4001 104.682 97.9555 104.535 98.5687 104.535C99.1552 104.535 99.6707 104.668 100.115 104.935C100.568 105.201 100.919 105.57 101.168 106.041C101.426 106.512 101.555 107.045 101.555 107.641C101.555 107.73 101.55 107.827 101.541 107.934C101.532 108.032 101.515 108.147 101.488 108.281H96.1427V107.281H100.848L100.408 107.668C100.408 107.241 100.333 106.881 100.182 106.588C100.031 106.286 99.8173 106.055 99.5418 105.895C99.2663 105.726 98.9331 105.641 98.5421 105.641C98.1333 105.641 97.7734 105.73 97.4623 105.908C97.1513 106.086 96.9114 106.334 96.7425 106.654C96.5737 106.974 96.4892 107.352 96.4892 107.787C96.4892 108.232 96.5781 108.623 96.7558 108.961C96.9336 109.289 97.1868 109.547 97.5157 109.734C97.8445 109.911 98.2221 110 98.6487 110C99.0042 110 99.3285 109.938 99.6218 109.814C99.9239 109.689 100.182 109.503 100.395 109.254L101.168 110.04C100.866 110.396 100.493 110.667 100.048 110.853C99.6129 111.04 99.1464 111.133 98.6487 111.133ZM102.863 111V104.668H104.062V111H102.863ZM104.062 107.388L103.609 107.188C103.609 106.379 103.796 105.735 104.169 105.255C104.542 104.775 105.08 104.535 105.782 104.535C106.102 104.535 106.391 104.593 106.648 104.708C106.906 104.815 107.146 104.997 107.368 105.255L106.582 106.068C106.449 105.926 106.302 105.824 106.142 105.761C105.982 105.699 105.795 105.668 105.582 105.668C105.138 105.668 104.773 105.81 104.489 106.095C104.205 106.379 104.062 106.81 104.062 107.388ZM115.699 111V107.308C115.699 106.828 115.548 106.432 115.246 106.121C114.944 105.81 114.553 105.655 114.073 105.655C113.753 105.655 113.468 105.726 113.22 105.868C112.971 106.01 112.775 106.206 112.633 106.454C112.491 106.703 112.42 106.988 112.42 107.308L111.927 107.028C111.927 106.548 112.033 106.121 112.246 105.748C112.46 105.375 112.757 105.081 113.14 104.868C113.522 104.646 113.953 104.535 114.433 104.535C114.912 104.535 115.335 104.655 115.699 104.895C116.072 105.135 116.365 105.45 116.579 105.841C116.792 106.223 116.899 106.632 116.899 107.068V111H115.699ZM111.22 111V104.668H112.42V111H111.22ZM121.216 111.133C120.638 111.133 120.114 110.991 119.643 110.707C119.172 110.413 118.798 110.018 118.523 109.52C118.256 109.023 118.123 108.463 118.123 107.841C118.123 107.219 118.256 106.659 118.523 106.161C118.798 105.664 119.167 105.268 119.629 104.975C120.1 104.682 120.629 104.535 121.216 104.535C121.695 104.535 122.122 104.637 122.495 104.842C122.877 105.037 123.184 105.313 123.415 105.668C123.646 106.015 123.775 106.419 123.802 106.881V108.787C123.775 109.24 123.646 109.645 123.415 110C123.193 110.356 122.891 110.636 122.509 110.84C122.135 111.036 121.704 111.133 121.216 111.133ZM121.416 110C122.011 110 122.491 109.8 122.855 109.4C123.22 108.992 123.402 108.472 123.402 107.841C123.402 107.405 123.317 107.028 123.148 106.708C122.988 106.379 122.757 106.126 122.455 105.948C122.153 105.761 121.802 105.668 121.402 105.668C121.002 105.668 120.647 105.761 120.336 105.948C120.034 106.135 119.794 106.392 119.616 106.721C119.447 107.041 119.363 107.41 119.363 107.827C119.363 108.254 119.447 108.632 119.616 108.961C119.794 109.28 120.038 109.534 120.349 109.72C120.66 109.907 121.016 110 121.416 110ZM123.322 111V109.294L123.548 107.747L123.322 106.215V104.668H124.535V111H123.322ZM126.281 111V104.668H127.481V111H126.281ZM130.56 111V107.174C130.56 106.703 130.414 106.334 130.12 106.068C129.836 105.792 129.476 105.655 129.041 105.655C128.747 105.655 128.485 105.717 128.254 105.841C128.023 105.966 127.837 106.139 127.694 106.361C127.552 106.583 127.481 106.85 127.481 107.161L126.988 106.921C126.988 106.441 127.09 106.023 127.294 105.668C127.508 105.313 127.797 105.037 128.161 104.842C128.525 104.637 128.934 104.535 129.387 104.535C129.832 104.535 130.231 104.633 130.587 104.828C130.951 105.024 131.236 105.299 131.44 105.655C131.653 106.01 131.76 106.432 131.76 106.921V111H130.56ZM134.839 111V107.174C134.839 106.703 134.693 106.334 134.399 106.068C134.115 105.792 133.76 105.655 133.333 105.655C133.04 105.655 132.773 105.717 132.533 105.841C132.302 105.966 132.115 106.139 131.973 106.361C131.831 106.583 131.76 106.85 131.76 107.161L131.08 106.921C131.107 106.432 131.236 106.015 131.467 105.668C131.707 105.313 132.013 105.037 132.387 104.842C132.76 104.637 133.169 104.535 133.613 104.535C134.075 104.535 134.488 104.633 134.853 104.828C135.217 105.024 135.506 105.299 135.719 105.655C135.941 106.01 136.052 106.437 136.052 106.934V111H134.839ZM140.617 111.133C139.986 111.133 139.418 110.991 138.911 110.707C138.405 110.413 138.005 110.018 137.711 109.52C137.418 109.023 137.272 108.458 137.272 107.827C137.272 107.205 137.414 106.646 137.698 106.148C137.991 105.65 138.382 105.259 138.871 104.975C139.369 104.682 139.924 104.535 140.537 104.535C141.124 104.535 141.639 104.668 142.084 104.935C142.537 105.201 142.888 105.57 143.137 106.041C143.394 106.512 143.523 107.045 143.523 107.641C143.523 107.73 143.519 107.827 143.51 107.934C143.501 108.032 143.483 108.147 143.457 108.281H138.111V107.281H142.817L142.377 107.668C142.377 107.241 142.301 106.881 142.15 106.588C141.999 106.286 141.786 106.055 141.51 105.895C141.235 105.726 140.902 105.641 140.511 105.641C140.102 105.641 139.742 105.73 139.431 105.908C139.12 106.086 138.88 106.334 138.711 106.654C138.542 106.974 138.458 107.352 138.458 107.787C138.458 108.232 138.547 108.623 138.725 108.961C138.902 109.289 139.156 109.547 139.484 109.734C139.813 109.911 140.191 110 140.617 110C140.973 110 141.297 109.938 141.59 109.814C141.893 109.689 142.15 109.503 142.364 109.254L143.137 110.04C142.835 110.396 142.461 110.667 142.017 110.853C141.582 111.04 141.115 111.133 140.617 111.133Z" fill="#21232B"/>
<circle cx="217" cy="56" r="32" fill="#DB3546" fill-opacity="0.25"/>
<path d="M189.607 111.133C188.923 111.133 188.31 110.982 187.768 110.68C187.234 110.369 186.812 109.947 186.501 109.414C186.19 108.872 186.035 108.258 186.035 107.574V101.749H187.288V107.548C187.288 108.036 187.39 108.458 187.594 108.814C187.799 109.169 188.074 109.445 188.421 109.64C188.776 109.836 189.172 109.934 189.607 109.934C190.06 109.934 190.456 109.836 190.794 109.64C191.14 109.445 191.411 109.169 191.607 108.814C191.811 108.458 191.913 108.041 191.913 107.561V101.749H193.18V107.588C193.18 108.272 193.024 108.881 192.713 109.414C192.402 109.947 191.98 110.369 191.447 110.68C190.914 110.982 190.3 111.133 189.607 111.133ZM197.04 111.133C196.685 111.133 196.347 111.089 196.027 111C195.716 110.902 195.427 110.769 195.161 110.6C194.894 110.422 194.663 110.214 194.468 109.974L195.241 109.2C195.472 109.485 195.738 109.698 196.041 109.84C196.343 109.974 196.68 110.04 197.054 110.04C197.427 110.04 197.716 109.978 197.92 109.854C198.124 109.72 198.227 109.538 198.227 109.307C198.227 109.076 198.142 108.898 197.973 108.774C197.813 108.641 197.605 108.534 197.347 108.454C197.089 108.365 196.814 108.281 196.52 108.201C196.236 108.112 195.965 108.001 195.707 107.867C195.45 107.734 195.236 107.552 195.067 107.321C194.907 107.09 194.827 106.783 194.827 106.401C194.827 106.019 194.921 105.69 195.107 105.415C195.294 105.13 195.552 104.913 195.881 104.762C196.218 104.61 196.623 104.535 197.094 104.535C197.591 104.535 198.031 104.624 198.413 104.802C198.804 104.97 199.124 105.228 199.373 105.575L198.6 106.348C198.422 106.117 198.2 105.939 197.933 105.815C197.676 105.69 197.382 105.628 197.054 105.628C196.707 105.628 196.44 105.69 196.254 105.815C196.076 105.93 195.987 106.095 195.987 106.308C195.987 106.521 196.067 106.686 196.227 106.801C196.387 106.917 196.596 107.014 196.854 107.094C197.12 107.174 197.396 107.259 197.68 107.348C197.964 107.428 198.236 107.539 198.493 107.681C198.751 107.823 198.96 108.014 199.12 108.254C199.289 108.494 199.373 108.809 199.373 109.2C199.373 109.796 199.16 110.267 198.733 110.613C198.315 110.96 197.751 111.133 197.04 111.133ZM203.649 111.133C203.018 111.133 202.449 110.991 201.942 110.707C201.436 110.413 201.036 110.018 200.743 109.52C200.45 109.023 200.303 108.458 200.303 107.827C200.303 107.205 200.445 106.646 200.729 106.148C201.023 105.65 201.414 105.259 201.902 104.975C202.4 104.682 202.956 104.535 203.569 104.535C204.155 104.535 204.671 104.668 205.115 104.935C205.568 105.201 205.919 105.57 206.168 106.041C206.426 106.512 206.555 107.045 206.555 107.641C206.555 107.73 206.55 107.827 206.541 107.934C206.532 108.032 206.515 108.147 206.488 108.281H201.143V107.281H205.848L205.408 107.668C205.408 107.241 205.333 106.881 205.182 106.588C205.031 106.286 204.817 106.055 204.542 105.895C204.266 105.726 203.933 105.641 203.542 105.641C203.133 105.641 202.773 105.73 202.462 105.908C202.151 106.086 201.911 106.334 201.743 106.654C201.574 106.974 201.489 107.352 201.489 107.787C201.489 108.232 201.578 108.623 201.756 108.961C201.934 109.289 202.187 109.547 202.516 109.734C202.844 109.911 203.222 110 203.649 110C204.004 110 204.329 109.938 204.622 109.814C204.924 109.689 205.182 109.503 205.395 109.254L206.168 110.04C205.866 110.396 205.493 110.667 205.048 110.853C204.613 111.04 204.146 111.133 203.649 111.133ZM207.863 111V104.668H209.062V111H207.863ZM209.062 107.388L208.609 107.188C208.609 106.379 208.796 105.735 209.169 105.255C209.542 104.775 210.08 104.535 210.782 104.535C211.102 104.535 211.391 104.593 211.648 104.708C211.906 104.815 212.146 104.997 212.368 105.255L211.582 106.068C211.449 105.926 211.302 105.824 211.142 105.761C210.982 105.699 210.795 105.668 210.582 105.668C210.138 105.668 209.773 105.81 209.489 106.095C209.205 106.379 209.062 106.81 209.062 107.388ZM220.699 111V107.308C220.699 106.828 220.548 106.432 220.246 106.121C219.944 105.81 219.553 105.655 219.073 105.655C218.753 105.655 218.468 105.726 218.22 105.868C217.971 106.01 217.775 106.206 217.633 106.454C217.491 106.703 217.42 106.988 217.42 107.308L216.927 107.028C216.927 106.548 217.033 106.121 217.246 105.748C217.46 105.375 217.757 105.081 218.14 104.868C218.522 104.646 218.953 104.535 219.433 104.535C219.912 104.535 220.335 104.655 220.699 104.895C221.072 105.135 221.365 105.45 221.579 105.841C221.792 106.223 221.899 106.632 221.899 107.068V111H220.699ZM216.22 111V104.668H217.42V111H216.22ZM226.216 111.133C225.638 111.133 225.114 110.991 224.643 110.707C224.172 110.413 223.798 110.018 223.523 109.52C223.256 109.023 223.123 108.463 223.123 107.841C223.123 107.219 223.256 106.659 223.523 106.161C223.798 105.664 224.167 105.268 224.629 104.975C225.1 104.682 225.629 104.535 226.216 104.535C226.695 104.535 227.122 104.637 227.495 104.842C227.877 105.037 228.184 105.313 228.415 105.668C228.646 106.015 228.775 106.419 228.802 106.881V108.787C228.775 109.24 228.646 109.645 228.415 110C228.193 110.356 227.891 110.636 227.509 110.84C227.135 111.036 226.704 111.133 226.216 111.133ZM226.416 110C227.011 110 227.491 109.8 227.855 109.4C228.22 108.992 228.402 108.472 228.402 107.841C228.402 107.405 228.317 107.028 228.148 106.708C227.988 106.379 227.757 106.126 227.455 105.948C227.153 105.761 226.802 105.668 226.402 105.668C226.002 105.668 225.647 105.761 225.336 105.948C225.034 106.135 224.794 106.392 224.616 106.721C224.447 107.041 224.363 107.41 224.363 107.827C224.363 108.254 224.447 108.632 224.616 108.961C224.794 109.28 225.038 109.534 225.349 109.72C225.66 109.907 226.016 110 226.416 110ZM228.322 111V109.294L228.548 107.747L228.322 106.215V104.668H229.535V111H228.322ZM231.281 111V104.668H232.481V111H231.281ZM235.56 111V107.174C235.56 106.703 235.414 106.334 235.12 106.068C234.836 105.792 234.476 105.655 234.041 105.655C233.747 105.655 233.485 105.717 233.254 105.841C233.023 105.966 232.837 106.139 232.694 106.361C232.552 106.583 232.481 106.85 232.481 107.161L231.988 106.921C231.988 106.441 232.09 106.023 232.294 105.668C232.508 105.313 232.797 105.037 233.161 104.842C233.525 104.637 233.934 104.535 234.387 104.535C234.832 104.535 235.231 104.633 235.587 104.828C235.951 105.024 236.236 105.299 236.44 105.655C236.653 106.01 236.76 106.432 236.76 106.921V111H235.56ZM239.839 111V107.174C239.839 106.703 239.693 106.334 239.399 106.068C239.115 105.792 238.76 105.655 238.333 105.655C238.04 105.655 237.773 105.717 237.533 105.841C237.302 105.966 237.115 106.139 236.973 106.361C236.831 106.583 236.76 106.85 236.76 107.161L236.08 106.921C236.107 106.432 236.236 106.015 236.467 105.668C236.707 105.313 237.013 105.037 237.387 104.842C237.76 104.637 238.169 104.535 238.613 104.535C239.075 104.535 239.488 104.633 239.853 104.828C240.217 105.024 240.506 105.299 240.719 105.655C240.941 106.01 241.052 106.437 241.052 106.934V111H239.839ZM245.617 111.133C244.986 111.133 244.418 110.991 243.911 110.707C243.405 110.413 243.005 110.018 242.711 109.52C242.418 109.023 242.272 108.458 242.272 107.827C242.272 107.205 242.414 106.646 242.698 106.148C242.991 105.65 243.382 105.259 243.871 104.975C244.369 104.682 244.924 104.535 245.537 104.535C246.124 104.535 246.639 104.668 247.084 104.935C247.537 105.201 247.888 105.57 248.137 106.041C248.394 106.512 248.523 107.045 248.523 107.641C248.523 107.73 248.519 107.827 248.51 107.934C248.501 108.032 248.483 108.147 248.457 108.281H243.111V107.281H247.817L247.377 107.668C247.377 107.241 247.301 106.881 247.15 106.588C246.999 106.286 246.786 106.055 246.51 105.895C246.235 105.726 245.902 105.641 245.511 105.641C245.102 105.641 244.742 105.73 244.431 105.908C244.12 106.086 243.88 106.334 243.711 106.654C243.542 106.974 243.458 107.352 243.458 107.787C243.458 108.232 243.547 108.623 243.725 108.961C243.902 109.289 244.156 109.547 244.484 109.734C244.813 109.911 245.191 110 245.617 110C245.973 110 246.297 109.938 246.59 109.814C246.893 109.689 247.15 109.503 247.364 109.254L248.137 110.04C247.835 110.396 247.461 110.667 247.017 110.853C246.582 111.04 246.115 111.133 245.617 111.133Z" fill="#21232B"/>
<circle cx="322" cy="56" r="32" fill="#7A35DB" fill-opacity="0.25"/>
<path d="M294.607 111.133C293.923 111.133 293.31 110.982 292.768 110.68C292.234 110.369 291.812 109.947 291.501 109.414C291.19 108.872 291.035 108.258 291.035 107.574V101.749H292.288V107.548C292.288 108.036 292.39 108.458 292.594 108.814C292.799 109.169 293.074 109.445 293.421 109.64C293.776 109.836 294.172 109.934 294.607 109.934C295.06 109.934 295.456 109.836 295.794 109.64C296.14 109.445 296.411 109.169 296.607 108.814C296.811 108.458 296.913 108.041 296.913 107.561V101.749H298.18V107.588C298.18 108.272 298.024 108.881 297.713 109.414C297.402 109.947 296.98 110.369 296.447 110.68C295.914 110.982 295.3 111.133 294.607 111.133ZM302.04 111.133C301.685 111.133 301.347 111.089 301.027 111C300.716 110.902 300.427 110.769 300.161 110.6C299.894 110.422 299.663 110.214 299.468 109.974L300.241 109.2C300.472 109.485 300.738 109.698 301.041 109.84C301.343 109.974 301.68 110.04 302.054 110.04C302.427 110.04 302.716 109.978 302.92 109.854C303.124 109.72 303.227 109.538 303.227 109.307C303.227 109.076 303.142 108.898 302.973 108.774C302.813 108.641 302.605 108.534 302.347 108.454C302.089 108.365 301.814 108.281 301.52 108.201C301.236 108.112 300.965 108.001 300.707 107.867C300.45 107.734 300.236 107.552 300.067 107.321C299.907 107.09 299.827 106.783 299.827 106.401C299.827 106.019 299.921 105.69 300.107 105.415C300.294 105.13 300.552 104.913 300.881 104.762C301.218 104.61 301.623 104.535 302.094 104.535C302.591 104.535 303.031 104.624 303.413 104.802C303.804 104.97 304.124 105.228 304.373 105.575L303.6 106.348C303.422 106.117 303.2 105.939 302.933 105.815C302.676 105.69 302.382 105.628 302.054 105.628C301.707 105.628 301.44 105.69 301.254 105.815C301.076 105.93 300.987 106.095 300.987 106.308C300.987 106.521 301.067 106.686 301.227 106.801C301.387 106.917 301.596 107.014 301.854 107.094C302.12 107.174 302.396 107.259 302.68 107.348C302.964 107.428 303.236 107.539 303.493 107.681C303.751 107.823 303.96 108.014 304.12 108.254C304.289 108.494 304.373 108.809 304.373 109.2C304.373 109.796 304.16 110.267 303.733 110.613C303.315 110.96 302.751 111.133 302.04 111.133ZM308.649 111.133C308.018 111.133 307.449 110.991 306.942 110.707C306.436 110.413 306.036 110.018 305.743 109.52C305.45 109.023 305.303 108.458 305.303 107.827C305.303 107.205 305.445 106.646 305.729 106.148C306.023 105.65 306.414 105.259 306.902 104.975C307.4 104.682 307.956 104.535 308.569 104.535C309.155 104.535 309.671 104.668 310.115 104.935C310.568 105.201 310.919 105.57 311.168 106.041C311.426 106.512 311.555 107.045 311.555 107.641C311.555 107.73 311.55 107.827 311.541 107.934C311.532 108.032 311.515 108.147 311.488 108.281H306.143V107.281H310.848L310.408 107.668C310.408 107.241 310.333 106.881 310.182 106.588C310.031 106.286 309.817 106.055 309.542 105.895C309.266 105.726 308.933 105.641 308.542 105.641C308.133 105.641 307.773 105.73 307.462 105.908C307.151 106.086 306.911 106.334 306.743 106.654C306.574 106.974 306.489 107.352 306.489 107.787C306.489 108.232 306.578 108.623 306.756 108.961C306.934 109.289 307.187 109.547 307.516 109.734C307.844 109.911 308.222 110 308.649 110C309.004 110 309.329 109.938 309.622 109.814C309.924 109.689 310.182 109.503 310.395 109.254L311.168 110.04C310.866 110.396 310.493 110.667 310.048 110.853C309.613 111.04 309.146 111.133 308.649 111.133ZM312.863 111V104.668H314.062V111H312.863ZM314.062 107.388L313.609 107.188C313.609 106.379 313.796 105.735 314.169 105.255C314.542 104.775 315.08 104.535 315.782 104.535C316.102 104.535 316.391 104.593 316.648 104.708C316.906 104.815 317.146 104.997 317.368 105.255L316.582 106.068C316.449 105.926 316.302 105.824 316.142 105.761C315.982 105.699 315.795 105.668 315.582 105.668C315.138 105.668 314.773 105.81 314.489 106.095C314.205 106.379 314.062 106.81 314.062 107.388ZM325.699 111V107.308C325.699 106.828 325.548 106.432 325.246 106.121C324.944 105.81 324.553 105.655 324.073 105.655C323.753 105.655 323.468 105.726 323.22 105.868C322.971 106.01 322.775 106.206 322.633 106.454C322.491 106.703 322.42 106.988 322.42 107.308L321.927 107.028C321.927 106.548 322.033 106.121 322.246 105.748C322.46 105.375 322.757 105.081 323.14 104.868C323.522 104.646 323.953 104.535 324.433 104.535C324.912 104.535 325.335 104.655 325.699 104.895C326.072 105.135 326.365 105.45 326.579 105.841C326.792 106.223 326.899 106.632 326.899 107.068V111H325.699ZM321.22 111V104.668H322.42V111H321.22ZM331.216 111.133C330.638 111.133 330.114 110.991 329.643 110.707C329.172 110.413 328.798 110.018 328.523 109.52C328.256 109.023 328.123 108.463 328.123 107.841C328.123 107.219 328.256 106.659 328.523 106.161C328.798 105.664 329.167 105.268 329.629 104.975C330.1 104.682 330.629 104.535 331.216 104.535C331.695 104.535 332.122 104.637 332.495 104.842C332.877 105.037 333.184 105.313 333.415 105.668C333.646 106.015 333.775 106.419 333.802 106.881V108.787C333.775 109.24 333.646 109.645 333.415 110C333.193 110.356 332.891 110.636 332.509 110.84C332.135 111.036 331.704 111.133 331.216 111.133ZM331.416 110C332.011 110 332.491 109.8 332.855 109.4C333.22 108.992 333.402 108.472 333.402 107.841C333.402 107.405 333.317 107.028 333.148 106.708C332.988 106.379 332.757 106.126 332.455 105.948C332.153 105.761 331.802 105.668 331.402 105.668C331.002 105.668 330.647 105.761 330.336 105.948C330.034 106.135 329.794 106.392 329.616 106.721C329.447 107.041 329.363 107.41 329.363 107.827C329.363 108.254 329.447 108.632 329.616 108.961C329.794 109.28 330.038 109.534 330.349 109.72C330.66 109.907 331.016 110 331.416 110ZM333.322 111V109.294L333.548 107.747L333.322 106.215V104.668H334.535V111H333.322ZM336.281 111V104.668H337.481V111H336.281ZM340.56 111V107.174C340.56 106.703 340.414 106.334 340.12 106.068C339.836 105.792 339.476 105.655 339.041 105.655C338.747 105.655 338.485 105.717 338.254 105.841C338.023 105.966 337.837 106.139 337.694 106.361C337.552 106.583 337.481 106.85 337.481 107.161L336.988 106.921C336.988 106.441 337.09 106.023 337.294 105.668C337.508 105.313 337.797 105.037 338.161 104.842C338.525 104.637 338.934 104.535 339.387 104.535C339.832 104.535 340.231 104.633 340.587 104.828C340.951 105.024 341.236 105.299 341.44 105.655C341.653 106.01 341.76 106.432 341.76 106.921V111H340.56ZM344.839 111V107.174C344.839 106.703 344.693 106.334 344.399 106.068C344.115 105.792 343.76 105.655 343.333 105.655C343.04 105.655 342.773 105.717 342.533 105.841C342.302 105.966 342.115 106.139 341.973 106.361C341.831 106.583 341.76 106.85 341.76 107.161L341.08 106.921C341.107 106.432 341.236 106.015 341.467 105.668C341.707 105.313 342.013 105.037 342.387 104.842C342.76 104.637 343.169 104.535 343.613 104.535C344.075 104.535 344.488 104.633 344.853 104.828C345.217 105.024 345.506 105.299 345.719 105.655C345.941 106.01 346.052 106.437 346.052 106.934V111H344.839ZM350.617 111.133C349.986 111.133 349.418 110.991 348.911 110.707C348.405 110.413 348.005 110.018 347.711 109.52C347.418 109.023 347.272 108.458 347.272 107.827C347.272 107.205 347.414 106.646 347.698 106.148C347.991 105.65 348.382 105.259 348.871 104.975C349.369 104.682 349.924 104.535 350.537 104.535C351.124 104.535 351.639 104.668 352.084 104.935C352.537 105.201 352.888 105.57 353.137 106.041C353.394 106.512 353.523 107.045 353.523 107.641C353.523 107.73 353.519 107.827 353.51 107.934C353.501 108.032 353.483 108.147 353.457 108.281H348.111V107.281H352.817L352.377 107.668C352.377 107.241 352.301 106.881 352.15 106.588C351.999 106.286 351.786 106.055 351.51 105.895C351.235 105.726 350.902 105.641 350.511 105.641C350.102 105.641 349.742 105.73 349.431 105.908C349.12 106.086 348.88 106.334 348.711 106.654C348.542 106.974 348.458 107.352 348.458 107.787C348.458 108.232 348.547 108.623 348.725 108.961C348.902 109.289 349.156 109.547 349.484 109.734C349.813 109.911 350.191 110 350.617 110C350.973 110 351.297 109.938 351.59 109.814C351.893 109.689 352.15 109.503 352.364 109.254L353.137 110.04C352.835 110.396 352.461 110.667 352.017 110.853C351.582 111.04 351.115 111.133 350.617 111.133Z" fill="#21232B"/>
<rect x="396" y="25" width="62" height="62" rx="31" stroke="#21232B" stroke-opacity="0.5" stroke-width="2" stroke-dasharray="8 8"/>
<mask id="mask1_177_75" style="mask-type:alpha" maskUnits="userSpaceOnUse" x="411" y="40" width="32" height="32">
<rect x="411" y="40" width="32" height="32" fill="#D9D9D9"/>
</mask>
<g mask="url(#mask1_177_75)">
<path d="M425.667 68V57.3333H415V54.6667H425.667V44H428.333V54.6667H439V57.3333H428.333V68H425.667Z" fill="#21232B" fill-opacity="0.5"/>
</g>
<path d="M411.899 111V101.749H413.152V111H411.899ZM419.601 111V107.308C419.601 106.828 419.45 106.432 419.148 106.121C418.846 105.81 418.455 105.655 417.975 105.655C417.655 105.655 417.371 105.726 417.122 105.868C416.873 106.01 416.678 106.206 416.536 106.454C416.393 106.703 416.322 106.988 416.322 107.308L415.829 107.028C415.829 106.548 415.936 106.121 416.149 105.748C416.362 105.375 416.66 105.081 417.042 104.868C417.424 104.646 417.855 104.535 418.335 104.535C418.815 104.535 419.237 104.655 419.601 104.895C419.975 105.135 420.268 105.45 420.481 105.841C420.694 106.223 420.801 106.632 420.801 107.068V111H419.601ZM415.123 111V104.668H416.322V111H415.123ZM424.598 111L421.692 104.668H423.025L425.358 110.014H424.585L426.931 104.668H428.211L425.305 111H424.598ZM429.247 111V104.668H430.447V111H429.247ZM429.847 103.402C429.625 103.402 429.442 103.331 429.3 103.189C429.158 103.038 429.087 102.851 429.087 102.629C429.087 102.415 429.158 102.238 429.3 102.096C429.442 101.944 429.625 101.869 429.847 101.869C430.069 101.869 430.251 101.944 430.393 102.096C430.536 102.238 430.607 102.415 430.607 102.629C430.607 102.851 430.536 103.038 430.393 103.189C430.251 103.331 430.069 103.402 429.847 103.402ZM433.188 111V102.016H434.387V111H433.188ZM431.628 105.761V104.668H435.947V105.761H431.628ZM439.86 111.133C439.229 111.133 438.66 110.991 438.153 110.707C437.647 110.413 437.247 110.018 436.954 109.52C436.66 109.023 436.514 108.458 436.514 107.827C436.514 107.205 436.656 106.646 436.94 106.148C437.234 105.65 437.625 105.259 438.113 104.975C438.611 104.682 439.166 104.535 439.78 104.535C440.366 104.535 440.882 104.668 441.326 104.935C441.779 105.201 442.13 105.57 442.379 106.041C442.637 106.512 442.766 107.045 442.766 107.641C442.766 107.73 442.761 107.827 442.752 107.934C442.743 108.032 442.726 108.147 442.699 108.281H437.354V107.281H442.059L441.619 107.668C441.619 107.241 441.544 106.881 441.393 106.588C441.241 106.286 441.028 106.055 440.753 105.895C440.477 105.726 440.144 105.641 439.753 105.641C439.344 105.641 438.984 105.73 438.673 105.908C438.362 106.086 438.122 106.334 437.953 106.654C437.785 106.974 437.7 107.352 437.7 107.787C437.7 108.232 437.789 108.623 437.967 108.961C438.144 109.289 438.398 109.547 438.727 109.734C439.055 109.911 439.433 110 439.86 110C440.215 110 440.539 109.938 440.833 109.814C441.135 109.689 441.393 109.503 441.606 109.254L442.379 110.04C442.077 110.396 441.704 110.667 441.259 110.853C440.824 111.04 440.357 111.133 439.86 111.133Z" fill="#21232B" fill-opacity="0.75"/>
<rect x="491" y="85.5" width="32" height="32" rx="16" transform="rotate(-90 491 85.5)" fill="#21232B" fill-opacity="0.1"/>
<mask id="mask2_177_75" style="mask-type:alpha" maskUnits="userSpaceOnUse" x="499" y="61" width="16" height="17">
<rect x="515" y="77.5" width="16" height="16" transform="rotate(-180 515 77.5)" fill="#D9D9D9"/>
</mask>
<g mask="url(#mask2_177_75)">
<path d="M504.333 62.8333L511 69.5L504.333 76.1666L503.15 74.9833L508.633 69.5L503.15 64.0166L504.333 62.8333Z" fill="#21232B"/>
</g>
</svg>
