<svg width="192" height="66" viewBox="0 0 192 66" fill="none" xmlns="http://www.w3.org/2000/svg">
<path d="M9 6V4H15V6H9ZM11 17H13V11H11V17ZM12 25C10.7667 25 9.60417 24.7625 8.5125 24.2875C7.42083 23.8125 6.46667 23.1667 5.65 22.35C4.83333 21.5333 4.1875 20.5792 3.7125 19.4875C3.2375 18.3958 3 17.2333 3 16C3 14.7667 3.2375 13.6042 3.7125 12.5125C4.1875 11.4208 4.83333 10.4667 5.65 9.65C6.46667 8.83333 7.42083 8.1875 8.5125 7.7125C9.60417 7.2375 10.7667 7 12 7C13.0333 7 14.025 7.16667 14.975 7.5C15.925 7.83333 16.8167 8.31667 17.65 8.95L19.05 7.55L20.45 8.95L19.05 10.35C19.6833 11.1833 20.1667 12.075 20.5 13.025C20.8333 13.975 21 14.9667 21 16C21 17.2333 20.7625 18.3958 20.2875 19.4875C19.8125 20.5792 19.1667 21.5333 18.35 22.35C17.5333 23.1667 16.5792 23.8125 15.4875 24.2875C14.3958 24.7625 13.2333 25 12 25ZM12 23C13.9333 23 15.5833 22.3167 16.95 20.95C18.3167 19.5833 19 17.9333 19 16C19 14.0667 18.3167 12.4167 16.95 11.05C15.5833 9.68333 13.9333 9 12 9C10.0667 9 8.41667 9.68333 7.05 11.05C5.68333 12.4167 5 14.0667 5 16C5 17.9333 5.68333 19.5833 7.05 20.95C8.41667 22.3167 10.0667 23 12 23Z" fill="#21232B"/>
<path d="M38.048 24V7.68H40.808V24H38.048ZM32.576 9.72V7.2H46.28V9.72H32.576ZM48.3474 24V12.48H50.9874V24H48.3474ZM49.6674 10.368C49.2194 10.368 48.8434 10.216 48.5394 9.912C48.2514 9.608 48.1074 9.232 48.1074 8.784C48.1074 8.336 48.2514 7.96 48.5394 7.656C48.8434 7.352 49.2194 7.2 49.6674 7.2C50.1314 7.2 50.5074 7.352 50.7954 7.656C51.0834 7.96 51.2274 8.336 51.2274 8.784C51.2274 9.232 51.0834 9.608 50.7954 9.912C50.5074 10.216 50.1314 10.368 49.6674 10.368ZM53.9484 24V12.48H56.5884V24H53.9484ZM61.6044 24V17.136C61.6044 16.368 61.3644 15.776 60.8844 15.36C60.4044 14.928 59.8124 14.712 59.1084 14.712C58.6284 14.712 58.1964 14.808 57.8124 15C57.4444 15.192 57.1484 15.472 56.9244 15.84C56.7004 16.192 56.5884 16.624 56.5884 17.136L55.5564 16.56C55.5564 15.68 55.7484 14.92 56.1324 14.28C56.5164 13.64 57.0364 13.144 57.6924 12.792C58.3484 12.424 59.0844 12.24 59.9004 12.24C60.7164 12.24 61.4524 12.416 62.1084 12.768C62.7644 13.12 63.2844 13.616 63.6684 14.256C64.0524 14.896 64.2444 15.664 64.2444 16.56V24H61.6044ZM69.2604 24V17.136C69.2604 16.368 69.0204 15.776 68.5404 15.36C68.0604 14.928 67.4684 14.712 66.7644 14.712C66.3004 14.712 65.8764 14.808 65.4924 15C65.1084 15.192 64.8044 15.472 64.5804 15.84C64.3564 16.192 64.2444 16.624 64.2444 17.136L62.7564 16.56C62.8364 15.68 63.0924 14.92 63.5244 14.28C63.9564 13.64 64.5084 13.144 65.1804 12.792C65.8684 12.424 66.6204 12.24 67.4364 12.24C68.2684 12.24 69.0204 12.416 69.6924 12.768C70.3644 13.12 70.9004 13.616 71.3004 14.256C71.7004 14.896 71.9004 15.664 71.9004 16.56V24H69.2604ZM79.9723 24.24C78.8203 24.24 77.7803 23.984 76.8523 23.472C75.9403 22.944 75.2123 22.224 74.6683 21.312C74.1403 20.4 73.8763 19.376 73.8763 18.24C73.8763 17.104 74.1403 16.088 74.6683 15.192C75.1963 14.28 75.9083 13.56 76.8043 13.032C77.7163 12.504 78.7243 12.24 79.8283 12.24C80.9003 12.24 81.8443 12.488 82.6603 12.984C83.4923 13.48 84.1403 14.16 84.6043 15.024C85.0843 15.888 85.3243 16.872 85.3243 17.976C85.3243 18.168 85.3083 18.368 85.2762 18.576C85.2603 18.768 85.2283 18.984 85.1803 19.224H75.7243V17.064H83.8123L82.8283 17.928C82.7963 17.224 82.6603 16.632 82.4203 16.152C82.1803 15.672 81.8363 15.304 81.3883 15.048C80.9563 14.792 80.4203 14.664 79.7803 14.664C79.1083 14.664 78.5243 14.808 78.0283 15.096C77.5323 15.384 77.1483 15.792 76.8763 16.32C76.6043 16.832 76.4683 17.448 76.4683 18.168C76.4683 18.888 76.6123 19.52 76.9003 20.064C77.1883 20.608 77.5963 21.032 78.1243 21.336C78.6523 21.624 79.2603 21.768 79.9483 21.768C80.5403 21.768 81.0843 21.664 81.5803 21.456C82.0923 21.248 82.5243 20.944 82.8763 20.544L84.5563 22.248C83.9963 22.904 83.3163 23.4 82.5163 23.736C81.7163 24.072 80.8683 24.24 79.9723 24.24ZM87.4406 24V12.48H90.0806V24H87.4406ZM90.0806 17.592L89.1686 17.136C89.1686 15.68 89.4886 14.504 90.1286 13.608C90.7846 12.696 91.7686 12.24 93.0806 12.24C93.6566 12.24 94.1766 12.344 94.6406 12.552C95.1046 12.76 95.5366 13.096 95.9366 13.56L94.2086 15.336C94.0006 15.112 93.7686 14.952 93.5126 14.856C93.2566 14.76 92.9606 14.712 92.6246 14.712C91.8886 14.712 91.2806 14.944 90.8006 15.408C90.3206 15.872 90.0806 16.6 90.0806 17.592Z" fill="#21232B"/>
<mask id="mask0_414_2548" style="mask-type:alpha" maskUnits="userSpaceOnUse" x="44" y="38" width="24" height="24">
<rect x="44" y="38" width="24" height="24" fill="#D9D9D9"/>
</mask>
<g mask="url(#mask0_414_2548)">
<path d="M55 51H49V49H55V43H57V49H63V51H57V57H55V51Z" fill="#7A35DB"/>
</g>
<path d="M76.496 56L81.04 44.896H82.128L86.656 56H85.024L81.296 46.608H81.856L78.096 56H76.496ZM78.656 53.488V52.176H84.496V53.488H78.656ZM90.9283 56.16C90.2243 56.16 89.5949 55.9893 89.0403 55.648C88.4856 55.296 88.0429 54.8213 87.7122 54.224C87.3923 53.6267 87.2323 52.9547 87.2323 52.208C87.2323 51.4613 87.3923 50.7893 87.7122 50.192C88.0429 49.5947 88.4856 49.12 89.0403 48.768C89.5949 48.416 90.2243 48.24 90.9283 48.24C91.4936 48.24 92.0056 48.3627 92.4643 48.608C92.9229 48.8427 93.2909 49.1733 93.5683 49.6C93.8563 50.016 94.0163 50.5013 94.0483 51.056V53.344C94.0163 53.888 93.8616 54.3733 93.5843 54.8C93.3069 55.2267 92.9389 55.5627 92.4803 55.808C92.0216 56.0427 91.5043 56.16 90.9283 56.16ZM91.1683 54.8C91.6483 54.8 92.0643 54.688 92.4163 54.464C92.7789 54.24 93.0616 53.936 93.2643 53.552C93.4669 53.1573 93.5683 52.7093 93.5683 52.208C93.5683 51.6853 93.4616 51.232 93.2483 50.848C93.0456 50.464 92.7629 50.16 92.4003 49.936C92.0483 49.712 91.6323 49.6 91.1523 49.6C90.6723 49.6 90.2509 49.712 89.8883 49.936C89.5256 50.16 89.2376 50.4693 89.0243 50.864C88.8216 51.248 88.7203 51.6907 88.7203 52.192C88.7203 52.704 88.8216 53.1573 89.0243 53.552C89.2376 53.936 89.5256 54.24 89.8883 54.464C90.2616 54.688 90.6883 54.8 91.1683 54.8ZM94.9283 56H93.4723V53.952L93.7443 52.096L93.4723 50.256V44.576H94.9283V56ZM100.241 56.16C99.5368 56.16 98.9074 55.9893 98.3528 55.648C97.7981 55.296 97.3554 54.8213 97.0247 54.224C96.7048 53.6267 96.5448 52.9547 96.5448 52.208C96.5448 51.4613 96.7048 50.7893 97.0247 50.192C97.3554 49.5947 97.7981 49.12 98.3528 48.768C98.9074 48.416 99.5368 48.24 100.241 48.24C100.806 48.24 101.318 48.3627 101.777 48.608C102.235 48.8427 102.603 49.1733 102.881 49.6C103.169 50.016 103.329 50.5013 103.361 51.056V53.344C103.329 53.888 103.174 54.3733 102.897 54.8C102.619 55.2267 102.251 55.5627 101.793 55.808C101.334 56.0427 100.817 56.16 100.241 56.16ZM100.481 54.8C100.961 54.8 101.377 54.688 101.729 54.464C102.091 54.24 102.374 53.936 102.577 53.552C102.779 53.1573 102.881 52.7093 102.881 52.208C102.881 51.6853 102.774 51.232 102.561 50.848C102.358 50.464 102.075 50.16 101.713 49.936C101.361 49.712 100.945 49.6 100.465 49.6C99.9848 49.6 99.5634 49.712 99.2008 49.936C98.8381 50.16 98.5501 50.4693 98.3368 50.864C98.1341 51.248 98.0328 51.6907 98.0328 52.192C98.0328 52.704 98.1341 53.1573 98.3368 53.552C98.5501 53.936 98.8381 54.24 99.2008 54.464C99.5741 54.688 100.001 54.8 100.481 54.8ZM104.241 56H102.785V53.952L103.057 52.096L102.785 50.256V44.576H104.241V56ZM110.833 56V45.216H112.273V56H110.833ZM108.961 49.712V48.4H114.145V49.712H108.961ZM115.572 56V48.4H117.012V56H115.572ZM116.292 46.88C116.025 46.88 115.807 46.7947 115.636 46.624C115.465 46.4427 115.38 46.2187 115.38 45.952C115.38 45.696 115.465 45.4827 115.636 45.312C115.807 45.1307 116.025 45.04 116.292 45.04C116.559 45.04 116.777 45.1307 116.948 45.312C117.119 45.4827 117.204 45.696 117.204 45.952C117.204 46.2187 117.119 46.4427 116.948 46.624C116.777 46.7947 116.559 46.88 116.292 46.88ZM119.134 56V48.4H120.574V56H119.134ZM124.27 56V51.408C124.27 50.8427 124.094 50.4 123.742 50.08C123.401 49.7493 122.969 49.584 122.446 49.584C122.094 49.584 121.779 49.6587 121.502 49.808C121.225 49.9573 121.001 50.1653 120.83 50.432C120.659 50.6987 120.574 51.0187 120.574 51.392L119.982 51.104C119.982 50.528 120.105 50.0267 120.35 49.6C120.606 49.1733 120.953 48.8427 121.39 48.608C121.827 48.3627 122.318 48.24 122.862 48.24C123.395 48.24 123.875 48.3573 124.302 48.592C124.739 48.8267 125.081 49.1573 125.326 49.584C125.582 50.0107 125.71 50.5173 125.71 51.104V56H124.27ZM129.406 56V51.408C129.406 50.8427 129.23 50.4 128.878 50.08C128.537 49.7493 128.11 49.584 127.598 49.584C127.246 49.584 126.926 49.6587 126.638 49.808C126.361 49.9573 126.137 50.1653 125.966 50.432C125.795 50.6987 125.71 51.0187 125.71 51.392L124.894 51.104C124.926 50.5173 125.081 50.016 125.358 49.6C125.646 49.1733 126.014 48.8427 126.462 48.608C126.91 48.3627 127.401 48.24 127.934 48.24C128.489 48.24 128.985 48.3573 129.422 48.592C129.859 48.8267 130.206 49.1573 130.462 49.584C130.729 50.0107 130.862 50.5227 130.862 51.12V56H129.406ZM136.342 56.16C135.584 56.16 134.902 55.9893 134.294 55.648C133.686 55.296 133.206 54.8213 132.854 54.224C132.502 53.6267 132.326 52.9493 132.326 52.192C132.326 51.4453 132.496 50.7733 132.838 50.176C133.19 49.5787 133.659 49.1093 134.246 48.768C134.843 48.416 135.51 48.24 136.246 48.24C136.95 48.24 137.568 48.4 138.102 48.72C138.646 49.04 139.067 49.4827 139.366 50.048C139.675 50.6133 139.83 51.2533 139.83 51.968C139.83 52.0747 139.824 52.192 139.814 52.32C139.803 52.4373 139.782 52.576 139.75 52.736H133.334V51.536H138.982L138.454 52C138.454 51.488 138.363 51.056 138.182 50.704C138 50.3413 137.744 50.064 137.414 49.872C137.083 49.6693 136.683 49.568 136.214 49.568C135.723 49.568 135.291 49.6747 134.918 49.888C134.544 50.1013 134.256 50.4 134.054 50.784C133.851 51.168 133.75 51.6213 133.75 52.144C133.75 52.6773 133.856 53.1467 134.07 53.552C134.283 53.9467 134.587 54.256 134.982 54.48C135.376 54.6933 135.83 54.8 136.342 54.8C136.768 54.8 137.158 54.7253 137.51 54.576C137.872 54.4267 138.182 54.2027 138.438 53.904L139.366 54.848C139.003 55.2747 138.555 55.6 138.022 55.824C137.499 56.048 136.939 56.16 136.342 56.16ZM141.4 56V48.4H142.84V56H141.4ZM142.84 51.664L142.296 51.424C142.296 50.4533 142.52 49.68 142.968 49.104C143.416 48.528 144.061 48.24 144.904 48.24C145.288 48.24 145.634 48.3093 145.944 48.448C146.253 48.576 146.541 48.7947 146.808 49.104L145.864 50.08C145.704 49.9093 145.528 49.7867 145.336 49.712C145.144 49.6373 144.92 49.6 144.664 49.6C144.13 49.6 143.693 49.7707 143.352 50.112C143.01 50.4533 142.84 50.9707 142.84 51.664Z" fill="#7A35DB"/>
</svg>
